<?xml version="1.0" encoding="UTF-8"?>
<svg width="100px" height="100px" viewBox="0 0 100 100" version="1.1" xmlns="http://www.w3.org/2000/svg" xmlns:xlink="http://www.w3.org/1999/xlink">
    <title>Icon/call@2x</title>
    <g id="4.-Commercial-Maintenance-Services" stroke="none" stroke-width="1" fill="none" fill-rule="evenodd">
        <g id="SGB---4.1-Commercial-Maintenance---Handyman-Services" transform="translate(-1155.000000, -538.000000)">
            <g id="QUICK-CONTACT" transform="translate(830.000000, 538.000000)">
                <g id="Icon/call" transform="translate(325.000000, 0.000000)">
                    <circle id="Oval" fill="#212121" cx="50" cy="50" r="50"></circle>
                    <g id="phone-call-copy" transform="translate(24.000000, 24.000000)" fill="#FFFFFF" fill-rule="nonzero">
                        <path d="M41.6177347,32.8410052 C40.5386659,31.7224437 39.2371087,31.124401 37.8576805,31.124401 C36.4893768,31.124401 35.1766952,31.7113689 34.0531287,32.8299303 L30.5378119,36.3185131 C30.2485769,36.163465 29.959342,36.0194918 29.6812315,35.8755185 C29.2807523,35.6761709 28.9025221,35.4878982 28.5799139,35.2885506 C25.2870854,33.2064758 22.2946163,30.4931336 19.4245158,26.982401 C18.0339633,25.2325722 17.0995119,23.759615 16.4209223,22.2645081 C17.3331248,21.4338931 18.1785807,20.5700536 19.0017878,19.7394386 C19.3132716,19.4293424 19.6247554,19.1081712 19.9362392,18.798075 C22.2723675,16.4723531 22.2723675,13.4599895 19.9362392,11.1342676 L16.8992724,8.11082921 C16.5544153,7.76750836 16.1984339,7.41311264 15.8647013,7.05871693 C15.197236,6.37207523 14.4963975,5.6632838 13.7733102,4.99879183 C12.6942414,3.93560469 11.4038086,3.37078652 10.0466294,3.37078652 C8.68945005,3.37078652 7.37676844,3.93560469 6.26432639,4.99879183 C6.25320197,5.0098667 6.25320197,5.0098667 6.24207755,5.02094156 L2.45977459,8.81962064 C1.03584877,10.2372035 0.223766072,11.9648826 0.0457753447,13.9694334 C-0.221210747,17.2032943 0.735489414,20.2156578 1.46970117,22.186984 C3.27185728,27.0267005 5.96396704,31.5120213 9.97988283,36.3185131 C14.852379,42.1106681 20.7149486,46.6845878 27.4118497,49.9073738 C29.9704664,51.1145343 33.3856635,52.543192 37.2013397,52.786839 C37.4349526,52.7979139 37.6796898,52.8089888 37.9021782,52.8089888 C40.4719193,52.8089888 42.6300569,51.8897749 44.3209688,50.062422 C44.3320932,50.0402722 44.3543421,50.0291974 44.3654665,50.0070476 C44.9439364,49.3093311 45.6114016,48.6780637 46.3122401,48.0024969 C46.7905902,47.5484274 47.2800647,47.0722081 47.7584148,46.5738392 C48.8597324,45.4331279 49.4382022,44.104144 49.4382022,42.7419355 C49.4382022,41.3686521 48.848608,40.050743 47.7250415,38.9432564 L41.6177347,32.8410052 Z M45.6002772,44.5028392 C45.5891528,44.5028392 45.5891528,44.5139141 45.6002772,44.5028392 C45.1664248,44.9679836 44.721448,45.3888285 44.2430979,45.8539729 C43.5200106,46.5406146 42.7857988,47.2604809 42.0960847,48.0689461 C40.9725183,49.2650316 39.6487122,49.8298498 37.9133026,49.8298498 C37.7464363,49.8298498 37.5684456,49.8298498 37.4015793,49.8187749 C34.0976264,49.6083525 31.0272864,48.323668 28.7245313,47.2272563 C22.4281093,44.1927429 16.8992724,39.88462 12.3048867,34.424711 C8.51145933,29.8729411 5.97509146,25.664492 4.29530397,21.1459466 C3.26073286,18.3883049 2.88250257,16.2397809 3.04936887,14.2130804 C3.16061308,12.9173211 3.661212,11.8430591 4.5845389,10.9238452 L8.37796628,7.14731586 C8.92306288,6.63787201 9.50153275,6.36100036 10.0688782,6.36100036 C10.7697167,6.36100036 11.3370621,6.78184527 11.6930436,7.13624099 C11.704168,7.14731586 11.7152924,7.15839072 11.7264168,7.16946559 C12.4050065,7.80073295 13.0502229,8.45415005 13.7288125,9.15186662 C14.0736696,9.50626233 14.429651,9.86065805 14.7856325,10.2261286 L17.8225993,13.2495671 C19.0017878,14.4235029 19.0017878,15.5088398 17.8225993,16.6827756 C17.4999911,17.0039467 17.1885073,17.3251178 16.8658991,17.635214 C15.9314478,18.5876525 15.0414941,19.4736418 14.0736696,20.3374814 C14.0514207,20.3596311 14.0291719,20.370706 14.0180475,20.3928557 C13.0613473,21.3452942 13.239338,22.2755829 13.4395776,22.9068503 C13.450702,22.9400749 13.4618264,22.9732995 13.4729509,23.0065241 C14.2627847,24.9114011 15.3752268,26.7055294 17.0661387,28.8429785 L17.0772631,28.8540534 C20.1476031,32.6195079 23.3848095,35.5543474 26.9557485,37.8025452 C27.4118497,38.0904917 27.8790754,38.3230639 28.3240522,38.5445612 C28.7245313,38.7439088 29.1027616,38.9321815 29.4253698,39.1315291 C29.4698675,39.1536789 29.5143652,39.1869035 29.5588629,39.2090532 C29.9370932,39.3973259 30.2930746,39.4859249 30.6601805,39.4859249 C31.5835074,39.4859249 32.1619773,38.9100318 32.3510924,38.7217591 L36.1556442,34.9341549 C36.5338745,34.5576094 37.1345932,34.1035399 37.8354317,34.1035399 C38.5251458,34.1035399 39.0924912,34.5354597 39.4373482,34.9120052 C39.4484727,34.92308 39.4484727,34.92308 39.4595971,34.9341549 L45.5891528,41.0364061 C46.7349681,42.1660424 46.7349681,43.3289034 45.6002772,44.5028392 Z" id="Shape"></path>
                        <path d="M28.2778756,12.14998 C31.3702783,12.6693589 34.1794074,14.1330631 36.4219896,16.3758357 C38.6645717,18.6186082 40.1163485,21.4279759 40.6474864,24.5206412 C40.7773201,25.2997096 41.4500947,25.8426966 42.2172939,25.8426966 C42.3117184,25.8426966 42.3943398,25.8308926 42.4887644,25.8190885 C43.3621911,25.6774397 43.9405412,24.8511551 43.7989044,23.9776542 C43.161539,20.2357653 41.3910794,16.8243902 38.6881778,14.1212591 C35.9852762,11.4181279 32.5741908,9.64751802 28.8326196,9.01009846 C27.9591928,8.86844967 27.1447814,9.4468489 26.9913416,10.3085457 C26.8379018,11.1702425 27.4044488,12.0083312 28.2778756,12.14998 Z" id="Path"></path>
                        <path d="M52.7853166,24.0477918 C51.7616679,18.041764 48.9322568,12.5765088 44.584625,8.22731629 C40.2369933,3.87812376 34.7736994,1.04769687 28.769827,0.0236806411 C27.930205,-0.125894763 27.1365897,0.449395254 26.987068,1.28931868 C26.8490479,2.14074791 27.4126298,2.93464813 28.2637535,3.08422353 C33.6235323,3.99318176 38.5117426,6.53596364 42.3993075,10.4134184 C46.2868724,14.3023789 48.81724,19.192344 49.7258721,24.554047 C49.8523905,25.3134298 50.5079857,25.8426966 51.2555943,25.8426966 C51.3476077,25.8426966 51.4281194,25.8311908 51.5201328,25.819685 C52.3597548,25.6931212 52.9348383,24.8877152 52.7853166,24.0477918 Z" id="Path"></path>
                    </g>
                </g>
            </g>
        </g>
    </g>
</svg>