<?xml version="1.0" encoding="UTF-8"?>
<svg width="43px" height="42px" viewBox="0 0 43 42" version="1.1" xmlns="http://www.w3.org/2000/svg" xmlns:xlink="http://www.w3.org/1999/xlink">
    <title>icon/cleaning@2x</title>
    <g id="SGB---1.0-Home-Page-" stroke="none" stroke-width="1" fill="none" fill-rule="evenodd">
        <g id="SGB---1.0.2-Menu-Services-Dropdown" transform="translate(-987.000000, -392.000000)">
            <g id="DROP-DOWN-MENU" transform="translate(130.000000, 85.000000)">
                <g id="CONTENTS" transform="translate(99.000000, 15.000000)">
                    <g id="COMMERCIAL-MAINT." transform="translate(470.000000, 0.000000)">
                        <g id="Group-44" transform="translate(0.000000, 133.000000)">
                            <g id="Group-43" transform="translate(285.000000, 0.000000)">
                                <g id="icon/cleaning" transform="translate(0.000000, 156.000000)">
                                    <rect id="colour" x="0" y="0" width="48" height="48"></rect>
                                    <path d="M28.0646336,20.0515406 C29.5361066,20.0515406 30.7333213,21.2618232 30.7333213,22.7494136 C30.7333213,23.619837 30.3101001,24.4246579 29.5961796,24.9212991 C29.5255373,27.144159 28.907011,29.3377625 27.804287,31.2734429 L27.804287,31.2734429 L26.5466379,42.398422 C26.3998429,43.8803585 25.1565571,45 23.6551832,45 L23.6551832,45 L10.0871709,45 C8.57838945,45 7.33311628,43.8762303 7.18867001,42.3860373 L7.18867001,42.3860373 L5.9312919,31.2664428 C4.82820661,29.3293266 4.20931895,27.1344667 4.13876702,24.9100812 C3.430899,24.4137092 3.00713575,23.6122986 3,22.7473495 C2.98807499,21.2727719 4.18601242,20.0634765 5.670313,20.0515406 L5.670313,20.0515406 Z M45.277317,3 C45.5049621,3.00215385 45.7129142,3.10553851 45.8498626,3.28394884 C45.9850043,3.45616686 46.0327917,3.68707722 45.9765128,3.90021833 L45.9765128,3.90021833 L45.1750573,6.94871964 L45.2732519,6.94871964 C45.6738893,6.9548222 45.9985546,7.28130952 46,7.67654046 L46,7.67654046 L46,9.661849 C46,10.5748109 45.2391051,11.3461574 44.3383711,11.3461574 L44.3383711,11.3461574 L37.4181392,11.3461574 L37.4181392,13.0310043 C37.4180489,13.432607 37.1014234,13.756761 36.6974436,13.7691456 L36.6974436,13.7691456 L36.3341147,13.7691456 L36.3341147,33.5282695 C36.6481204,33.5962951 36.8817277,33.8775517 36.8761269,34.2090646 L36.8761269,34.2090646 L36.8761269,42.8247221 C36.8761269,44.0123893 35.9034859,44.9785692 34.7080779,44.9785692 C33.5126698,44.9785692 32.5400288,44.0123893 32.5400288,42.8247221 L32.5400288,42.8247221 L32.5405709,34.1735261 C32.5523145,33.8540388 32.7797789,33.5937823 33.0820411,33.5283592 L33.0820411,33.5283592 L33.0820411,13.7692354 L32.7268424,13.7692354 C32.3175328,13.7570302 31.9998233,13.4331455 31.9980166,13.0317222 L31.9980166,13.0317222 L31.9980166,11.3461574 L25.0804044,11.3461574 C24.1783154,11.3461574 23.4161558,10.5748109 23.4161558,9.661849 L23.4161558,9.661849 L23.4161558,7.67716867 C23.4192272,7.28068132 23.7452476,6.95455297 24.1429039,6.94871964 L24.1429039,6.94871964 L24.2438085,6.94871964 L23.4422627,3.90003885 C23.3859838,3.68716696 23.4337712,3.45616686 23.5700873,3.2824232 C23.7058613,3.10553851 23.9139037,3.0020641 24.1397421,3 L24.1397421,3 Z M26.0659634,33.6635849 C24.5626924,35.345201 22.6602293,36.626381 20.5254237,37.3908173 L20.5254237,37.3908173 L20.5259657,38.0134586 C20.5286758,38.1979715 20.4583045,38.3736895 20.3279506,38.5069588 C20.197687,38.6402281 20.022888,38.7150742 19.8358938,38.7177665 L19.8358938,38.7177665 L13.8818891,38.7172281 C13.4920919,38.7000871 13.1913655,38.37351 13.2084389,37.989138 L13.2084389,37.989138 L13.2082582,37.3908173 C11.0740849,36.6265605 9.17207355,35.3454702 7.66916388,33.6640336 L7.66916388,33.6640336 L8.62617686,42.2382296 C8.69709013,42.9953068 9.32510167,43.5639225 10.0872612,43.564102 L10.0872612,43.564102 L23.649221,43.564102 C24.4094836,43.564102 25.0365918,42.9980889 25.1092214,42.2475629 L25.1092214,42.2475629 Z M35.4307609,42.3077091 L33.9853949,42.3077091 L33.9853949,42.3077091 L33.985211,42.8386324 C33.9840398,43.2301839 34.3085245,43.5546968 34.7087102,43.556043 C35.1134127,43.551466 35.4352777,43.2244403 35.4307609,42.8267863 L35.4307609,42.8267863 L35.4307609,42.3077091 Z M35.4307609,34.9487316 L33.9853949,34.9487316 L33.9853949,40.8718111 L35.4307609,40.8718111 L35.4307609,34.9487316 Z M19.0800577,36.564099 L14.6536242,36.564099 L14.6536242,37.282048 L19.0800577,37.282048 L19.0800577,36.564099 Z M27.0136718,25.4358891 L6.72272014,25.4358891 L7.34684726,30.8223914 C8.69212169,33.0807 10.7654993,34.8562777 13.2082582,35.8475858 L13.2082582,35.8475858 L13.2082582,35.8207525 C13.2078065,35.8108807 13.2077162,35.7946371 13.2083485,35.7781243 C13.2211761,35.4136754 13.5188312,35.1278419 13.8861349,35.1278419 L13.8861349,35.1278419 L13.9101641,35.1282907 L19.8492634,35.1279317 C19.8589293,35.1279317 19.8685952,35.1281112 19.8781707,35.1285599 C20.2508945,35.1443548 20.5411421,35.458278 20.525243,35.8283807 L20.525243,35.8283807 L20.5253334,35.8475858 C22.9687247,34.8562777 25.0424636,33.0807 26.3880993,30.8222119 L26.3880993,30.8222119 L27.0136718,25.4358891 Z M34.8887486,13.7692354 L34.5274071,13.7692354 L34.5274071,33.5128336 L34.8887486,33.5128336 L34.8887486,13.7692354 Z M28.0646336,21.4871694 L5.67175836,21.4871694 C5.00716099,21.4871694 4.44572663,22.0625158 4.44572663,22.7435802 C4.44572663,23.0671958 4.57752594,23.3887472 4.80742948,23.6258498 C5.04130777,23.866991 5.34808671,23.9997218 5.67130669,23.9997218 L5.67130669,23.9997218 L28.0646336,23.9997218 C28.7277856,23.9997218 29.2879553,23.4270677 29.2879553,22.7491443 C29.2879553,22.0650287 28.7277856,21.4871694 28.0646336,21.4871694 L28.0646336,21.4871694 Z M35.9727732,11.3461574 L33.4433826,11.3461574 L33.4433826,12.3333373 L35.9727732,12.3333373 L35.9727732,11.3461574 Z M44.554635,8.38461769 L24.8615218,8.38461769 L24.8615218,9.661849 C24.8619735,9.78892598 24.9612521,9.89715679 25.0885346,9.91025936 L25.0885346,9.91025936 L44.3304216,9.91025936 C44.4569814,9.89715679 44.5549953,9.78946444 44.554635,9.66229772 L44.554635,9.66229772 L44.554635,8.38461769 Z M44.3418942,4.43589805 L25.077333,4.43589805 L25.737504,6.94871964 L43.6812715,6.94871964 L44.3418942,4.43589805 Z" fill="#212121"></path>
                                </g>
                            </g>
                        </g>
                    </g>
                </g>
            </g>
        </g>
    </g>
</svg>