<?xml version="1.0" encoding="UTF-8"?> <svg xmlns="http://www.w3.org/2000/svg" width="48" height="48" viewBox="0 0 48 48"><g fill="none" fill-rule="evenodd"><path d="M0 0h48v48H0z"></path><path fill="#D2222A" d="M44.555 9.662V8.385H24.862v1.277c0 .127.1.235.227.248H44.33a.25.25 0 0 0 .225-.248zm-11.112 2.671h2.53v-.987h-2.53v.987zm1.084 21.18h.362V13.769h-.362v19.744zm-.542 7.359h1.446v-5.923h-1.446v5.923zm1.446 1.955v-.52h-1.446v.532a.723.723 0 1 0 1.446-.012zm8.91-38.391H25.078l.66 2.513h17.944l.66-2.513zm.932 2.513c.4.006.726.332.727.728v1.985c0 .913-.76 1.684-1.662 1.684h-6.92v1.685a.738.738 0 0 1-.72.738h-.364v19.76c.314.067.548.349.542.68v8.616a2.163 2.163 0 0 1-2.168 2.154 2.163 2.163 0 0 1-2.168-2.154v-8.619-.032c.012-.32.24-.58.542-.646V13.77h-.355a.742.742 0 0 1-.729-.737v-1.686H25.08c-.902 0-1.664-.771-1.664-1.684V7.677a.74.74 0 0 1 .727-.728h.1l-.8-3.049a.722.722 0 0 1 .697-.9h21.137a.724.724 0 0 1 .7.9l-.802 3.049h.098zm-17.208 17.05c.663 0 1.223-.572 1.223-1.25 0-.684-.56-1.262-1.223-1.262H5.672c-.665 0-1.226.576-1.226 1.257 0 .323.132.645.361.882.234.241.541.374.864.374h22.394zm-1.677 6.823l.626-5.386H6.723l.624 5.386a12.167 12.167 0 0 0 5.861 5.025v-.026-.043a.674.674 0 0 1 .678-.65h5.992c.373.016.663.33.647.7v.02a12.17 12.17 0 0 0 5.863-5.026zm-11.734 6.46h4.426v-.718h-4.426v.718zm10.455 4.966l.957-8.584a13.557 13.557 0 0 1-5.54 3.727v.622a.698.698 0 0 1-.69.704H13.882a.701.701 0 0 1-.674-.728v-.598a13.553 13.553 0 0 1-5.539-3.727l.957 8.574c.071.757.7 1.326 1.461 1.326H23.65c.76 0 1.388-.566 1.46-1.316zm2.956-22.196c1.471 0 2.668 1.21 2.668 2.697 0 .87-.423 1.676-1.137 2.172a13.755 13.755 0 0 1-1.792 6.352l-1.257 11.125A2.888 2.888 0 0 1 23.655 45H10.087a2.892 2.892 0 0 1-2.898-2.614L5.93 31.266A13.767 13.767 0 0 1 4.14 24.91 2.663 2.663 0 0 1 3 22.747a2.686 2.686 0 0 1 2.67-2.695h22.395z"></path></g></svg> 