<?xml version="1.0" encoding="UTF-8"?> <svg xmlns="http://www.w3.org/2000/svg" width="48" height="48" viewBox="0 0 48 48"><g fill="none" fill-rule="evenodd"><path d="M0 0h48v48H0z"></path><path fill="#D2222A" d="M31.798 27.346a13.096 13.096 0 0 0 5.686-12.153 13.065 13.065 0 0 0-5.708-9.52c-5.984-4.022-14.092-2.426-18.11 3.564-4.016 5.99-2.422 14.106 3.562 18.127a6.557 6.557 0 0 1 2.922 5.439v.408h1.45V18.696h-1.45a.714.714 0 0 1-.182-.036.715.715 0 0 1-.18.036 3.264 3.264 0 0 1-3.263-3.265 3.264 3.264 0 0 1 3.262-3.266 3.264 3.264 0 0 1 3.263 3.266.72.72 0 0 1-.037.181c.02.059.032.12.037.182v1.451h2.9v-1.451a.721.721 0 0 1 .036-.182.72.72 0 0 1-.036-.181 3.264 3.264 0 0 1 3.262-3.266 3.264 3.264 0 0 1 3.263 3.266 3.264 3.264 0 0 1-3.263 3.265.714.714 0 0 1-.181-.036.714.714 0 0 1-.181.036H27.4v14.515h1.45v-.407a6.606 6.606 0 0 1 2.948-5.458zm-4.435-11.734c.02.059.032.12.037.182v1.451h1.45a.718.718 0 0 1 .181.036.718.718 0 0 1 .181-.036 1.813 1.813 0 1 0-1.812-1.814.716.716 0 0 1-.037.181zm-4.313 17.6h2.9V18.695h-2.9v14.515zM21.6 17.244v-1.451a.717.717 0 0 1 .036-.182.716.716 0 0 1-.036-.181 1.813 1.813 0 1 0-1.813 1.814.72.72 0 0 1 .181.036.718.718 0 0 1 .182-.036h1.45zm-2.9 18.869h11.6v-1.451H18.7v1.451zm.725 2.903h10.15v-1.452h-10.15v1.452zm2.175 3.629h5.8v-2.178h-5.8v2.178zm4.35 2.177v-.726h-2.9v.726c0 .4.324.726.725.726h1.45c.4 0 .725-.325.725-.726zm12.977-29.771a14.545 14.545 0 0 1-6.317 13.497 5.154 5.154 0 0 0-2.31 4.255v.407c.8 0 1.45.65 1.45 1.452v1.451a1.445 1.445 0 0 1-.745 1.26c.011.063.018.127.02.191v1.452a1.45 1.45 0 0 1-1.45 1.451h-.725v2.903c0 .401-.325.726-.725.726H27.4v.726A2.176 2.176 0 0 1 25.225 47h-1.45a2.176 2.176 0 0 1-2.175-2.177v-.726h-.725a.725.725 0 0 1-.725-.726v-2.903h-.725c-.801 0-1.45-.65-1.45-1.451v-1.452a1.4 1.4 0 0 1 .02-.191 1.445 1.445 0 0 1-.745-1.26v-1.451c0-.802.649-1.452 1.45-1.452v-.408a5.105 5.105 0 0 0-2.281-4.237 14.517 14.517 0 0 1-6.344-10.586c-.808-7.976 4.996-15.096 12.964-15.905 7.967-.808 15.08 5.001 15.888 12.977zM24.5 4.908a.725.725 0 0 1 0 1.451c-5.604.006-10.144 4.551-10.15 10.16a.725.725 0 1 1-1.45 0c.007-6.41 5.196-11.604 11.6-11.611zm-9.784 14.321c.128.462.288.915.48 1.354a.727.727 0 0 1-.664 1.016.725.725 0 0 1-.665-.435 11.498 11.498 0 0 1-.56-1.591.726.726 0 1 1 1.409-.344z"></path></g></svg> 