<?xml version="1.0" encoding="UTF-8"?>
<svg width="29px" height="45px" viewBox="0 0 29 45" version="1.1" xmlns="http://www.w3.org/2000/svg" xmlns:xlink="http://www.w3.org/1999/xlink">
    <title>icon/electrical@2x</title>
    <g id="SGB---1.0-Home-Page-" stroke="none" stroke-width="1" fill="none" fill-rule="evenodd">
        <g id="SGB---1.0.2-Menu-Services-Dropdown" transform="translate(-709.000000, -313.000000)">
            <g id="DROP-DOWN-MENU" transform="translate(130.000000, 85.000000)">
                <g id="CONTENTS" transform="translate(99.000000, 15.000000)">
                    <g id="COMMERCIAL-MAINT." transform="translate(470.000000, 0.000000)">
                        <g id="Group-44" transform="translate(0.000000, 133.000000)">
                            <g id="icon/electrical" transform="translate(0.000000, 78.000000)">
                                <rect id="colour" x="0" y="0" width="48" height="48"></rect>
                                <path d="M23.0387516,2.07511625 C31.0060405,1.26665105 38.1195522,7.07649682 38.9272014,15.0518355 C39.460529,20.3714495 37.0342283,25.554898 32.6095577,28.5490859 C31.1803122,29.4942608 30.3143912,31.0893286 30.29971,32.8039606 L30.29971,32.8039606 L30.29971,33.2110962 C31.1005623,33.2110962 31.7497085,33.8608982 31.7497085,34.6625597 L31.7497085,34.6625597 L31.7497085,36.1140233 C31.7480773,36.6380923 31.4632432,37.1201597 31.0051343,37.3738937 C31.0160093,37.4372137 31.0225343,37.5012596 31.0247093,37.5654868 L31.0247093,37.5654868 L31.0247093,39.0169504 C31.0247093,39.8186119 30.375563,40.468414 29.5747107,40.468414 L29.5747107,40.468414 L28.8497114,40.468414 L28.8497114,43.3713411 C28.8497114,43.7721265 28.525093,44.0970729 28.1247121,44.0970729 L28.1247121,44.0970729 L27.3997129,44.0970729 L27.3997129,44.8228047 C27.3997129,46.0252515 26.4259482,47 25.224715,47 L25.224715,47 L23.7747165,47 C22.5734833,47 21.5997186,46.0252515 21.5997186,44.8228047 L21.5997186,44.8228047 L21.5997186,44.0970729 L20.8747193,44.0970729 C20.4742479,44.0970729 20.14972,43.7721265 20.14972,43.3713411 L20.14972,43.3713411 L20.14972,40.468414 L19.4247208,40.468414 C18.6238684,40.468414 17.9747222,39.8186119 17.9747222,39.0169504 L17.9747222,39.0169504 L17.9747222,37.5654868 C17.9768066,37.5012596 17.9834222,37.4372137 17.9942972,37.3738937 C17.5361883,37.1201597 17.2512635,36.6380923 17.2497229,36.1140233 L17.2497229,36.1140233 L17.2497229,34.6625597 C17.2497229,33.8608982 17.8988692,33.2110962 18.6997215,33.2110962 L18.6997215,33.2110962 L18.6997215,32.8025092 C18.6939215,31.0977652 17.8382411,29.5085033 16.4188738,28.5664128 C12.8356554,26.158344 10.5104015,22.2777654 10.0750394,17.979619 C9.26739022,10.0042803 15.0714626,2.88358145 23.0387516,2.07511625 Z M25.9497143,44.0970729 L23.0497172,44.0970729 L23.0497172,44.8228047 C23.0497172,45.22359 23.374245,45.5485364 23.7747165,45.5485364 L23.7747165,45.5485364 L25.224715,45.5485364 C25.6250959,45.5485364 25.9497143,45.22359 25.9497143,44.8228047 L25.9497143,44.8228047 L25.9497143,44.0970729 Z M27.3997129,40.468414 L21.5997186,40.468414 L21.5997186,42.6456093 L27.3997129,42.6456093 L27.3997129,40.468414 Z M29.5747107,37.5654868 L19.4247208,37.5654868 L19.4247208,39.0169504 L29.5747107,39.0169504 L29.5747107,37.5654868 Z M30.29971,34.6625597 L18.6997215,34.6625597 L18.6997215,36.1140233 L30.29971,36.1140233 L30.29971,34.6625597 Z M31.7755366,5.67220582 C25.7915738,1.65101674 17.6839975,3.24699164 13.6668671,9.23690962 C9.64964609,15.2269183 11.2440101,23.3426861 17.2279729,27.3638752 C19.0473586,28.575303 20.1432857,30.6152443 20.14972,32.8025092 L20.14972,32.8025092 L20.14972,33.2110962 L21.5997186,33.2110962 L21.5997186,18.6964605 L20.14972,18.6964605 C20.0880045,18.6922876 20.0270139,18.6800408 19.9684702,18.6601739 C19.9098359,18.6800408 19.848936,18.6922876 19.7872204,18.6964605 C17.9854159,18.6964605 16.5247236,17.2343831 16.5247236,15.4306675 C16.5247236,13.6270426 17.9854159,12.1648745 19.7872204,12.1648745 C21.5890249,12.1648745 23.0497172,13.6270426 23.0497172,15.4306675 C23.0454578,15.4924454 23.0333141,15.5534976 23.0134672,15.6121005 C23.0333141,15.670794 23.0454578,15.7317555 23.0497172,15.7935334 L23.0497172,15.7935334 L23.0497172,17.244997 L25.9497143,17.244997 L25.9497143,15.7935334 C25.9539737,15.7317555 25.9661174,15.670794 25.9859643,15.6121005 C25.9661174,15.5534976 25.9539737,15.4924454 25.9497143,15.4306675 C25.9497143,13.6270426 27.4104066,12.1648745 29.2122111,12.1648745 C31.0140155,12.1648745 32.4747078,13.6270426 32.4747078,15.4306675 C32.4747078,17.2343831 31.0140155,18.6964605 29.2122111,18.6964605 C29.1504955,18.6922876 29.0895049,18.6800408 29.0309612,18.6601739 C28.9723269,18.6800408 28.9115176,18.6922876 28.8497114,18.6964605 L28.8497114,18.6964605 L27.3997129,18.6964605 L27.3997129,33.2110962 L28.8497114,33.2110962 L28.8497114,32.8039606 C28.864302,30.6068077 29.9695634,28.5609698 31.7982835,27.3457319 C35.7813389,24.6493662 37.9650368,19.982548 37.4844529,15.1933532 C37.0907782,11.3276522 34.9984303,7.83806161 31.7755366,5.67220582 Z M25.9497143,18.6964605 L23.0497172,18.6964605 L23.0497172,33.2110962 L25.9497143,33.2110962 L25.9497143,18.6964605 Z M13.8397704,18.6960342 C14.2287325,18.601054 14.6209571,18.8398198 14.7158414,19.2291749 C14.8438038,19.6912846 15.0041192,20.1438691 15.1957909,20.5833904 C15.2356659,20.6748326 15.2562377,20.7735321 15.2563284,20.8733202 C15.2565096,21.2741056 14.9320724,21.5991427 14.5316916,21.5994149 C14.2433231,21.5995056 13.9822327,21.4285957 13.8668672,21.1639758 C13.6474643,20.6614973 13.4643114,20.1438691 13.3187678,19.6152642 C13.3145084,19.6012938 13.3106115,19.5872328 13.3071678,19.5729903 C13.2122835,19.1836352 13.4507176,18.7909236 13.8397704,18.6960342 Z M29.2122111,13.6163381 C28.2111683,13.6163381 27.3997129,14.4286133 27.3997129,15.4306675 C27.3954535,15.4924454 27.3833097,15.5534976 27.3633723,15.6121005 C27.3833097,15.670794 27.3954535,15.7317555 27.3997129,15.7935334 L27.3997129,15.7935334 L27.3997129,17.244997 L28.8497114,17.244997 C28.9115176,17.2492606 28.9723269,17.2614166 29.0309612,17.2812835 C29.0895049,17.2614166 29.1504955,17.2492606 29.2122111,17.244997 C30.2132538,17.244997 31.0247093,16.4327217 31.0247093,15.4306675 C31.0247093,14.4286133 30.2132538,13.6163381 29.2122111,13.6163381 Z M19.7872204,13.6163381 C18.7861777,13.6163381 17.9747222,14.4286133 17.9747222,15.4306675 C17.9747222,16.4327217 18.7861777,17.244997 19.7872204,17.244997 C19.848936,17.2492606 19.9098359,17.2614166 19.9684702,17.2812835 C20.0270139,17.2614166 20.0880045,17.2492606 20.14972,17.244997 L20.14972,17.244997 L21.5997186,17.244997 L21.5997186,15.7935334 C21.6038874,15.7317555 21.6161217,15.670794 21.6359686,15.6121005 C21.6161217,15.5534976 21.6038874,15.4924454 21.5997186,15.4306675 C21.5997186,14.4286133 20.7882632,13.6163381 19.7872204,13.6163381 Z M24.4997067,4.90757482 C24.9000875,4.90757482 25.224706,5.23252122 25.224706,5.6333066 C25.224706,6.03409198 24.9000875,6.35903838 24.4997067,6.35903838 C18.8964591,6.36502567 14.355698,10.9103745 14.3497167,16.5192833 C14.3497167,16.9200687 14.0250983,17.2450151 13.6247175,17.2450151 C13.2243366,17.2450151 12.8997182,16.9200687 12.8997182,16.5192833 C12.9073307,10.1094388 18.0963318,4.915195 24.4997067,4.90757482 Z" fill="#212121"></path>
                            </g>
                        </g>
                    </g>
                </g>
            </g>
        </g>
    </g>
</svg>