<?xml version="1.0" encoding="UTF-8"?>
<svg width="36px" height="43px" viewBox="0 0 36 43" version="1.1" xmlns="http://www.w3.org/2000/svg" xmlns:xlink="http://www.w3.org/1999/xlink">
    <title>icon/fridge@2x</title>
    <g id="SGB---1.0-Home-Page-" stroke="none" stroke-width="1" fill="none" fill-rule="evenodd">
        <g id="SGB---1.0.2-Menu-Services-Dropdown" transform="translate(-235.000000, -440.000000)">
            <g id="DROP-DOWN-MENU" transform="translate(130.000000, 85.000000)">
                <g id="CONTENTS" transform="translate(99.000000, 15.000000)">
                    <g id="Group-41" transform="translate(0.000000, 133.000000)">
                        <g id="icon/fridge" transform="translate(0.000000, 204.000000)">
                            <rect id="colour" x="0" y="0" width="48" height="48"></rect>
                            <path d="M28.3060921,3 C28.4055869,3 28.5002675,3.02042526 28.5879941,3.05375067 L28.5879941,3.05375067 L37.667162,3.05375067 C40.056107,3.05375067 42,5.00651258 42,7.40701759 L42,7.40701759 L42,39.1742022 C42,41.4139927 40.396315,43.20389 38.2555721,43.4850061 L38.2555721,43.4850061 L38.2555721,45.1937399 C38.2555721,45.6387955 37.896107,46 37.4531947,46 C37.0102823,46 36.6508172,45.6387955 36.6508172,45.1937399 L36.6508172,45.1937399 L36.6508172,43.5280066 L12.0445765,43.5280066 L12.0445765,45.1937399 C12.0445765,45.6387955 11.6856464,46 11.2421991,46 C10.7987519,46 10.4398217,45.6387955 10.4398217,45.1937399 L10.4398217,45.1937399 L10.4398217,43.5280066 L10.332838,43.5280066 C7.94389302,43.5280066 6,41.5747072 6,39.1742022 L6,39.1742022 L6,7.40701759 C6,5.00651258 7.94389302,3.05375067 10.332838,3.05375067 L10.332838,3.05375067 L28.0247251,3.05375067 C28.1124517,3.02042526 28.2071322,3 28.3060921,3 Z M37.667162,4.66627083 L29.1084695,4.66627083 L29.1084695,41.9154864 L37.667162,41.9154864 C39.1970282,41.9154864 40.3952452,40.7109339 40.3952452,39.1742022 L40.3952452,39.1742022 L40.3952452,7.40701759 C40.3952452,5.89554869 39.1713522,4.66627083 37.667162,4.66627083 L37.667162,4.66627083 Z M27.5037147,4.66627083 L10.332838,4.66627083 C8.82864785,4.66627083 7.60475483,5.89554869 7.60475483,7.40701759 L7.60475483,7.40701759 L7.60475483,39.1742022 C7.60475483,40.6856711 8.82864785,41.9154864 10.332838,41.9154864 L10.332838,41.9154864 L27.5037147,41.9154864 L27.5037147,4.66627083 Z M24.4012422,15.9536969 C24.8446895,15.9536969 25.2036196,16.3149014 25.2036196,16.759957 L25.2036196,16.759957 L25.2036196,29.5526169 C25.2036196,29.9976725 24.8446895,30.358877 24.4012422,30.358877 C23.9577949,30.358877 23.5988648,29.9976725 23.5988648,29.5526169 L23.5988648,29.5526169 L23.5988648,16.759957 C23.5988648,16.3149014 23.9577949,15.9536969 24.4012422,15.9536969 Z M32.2111025,15.9538044 C32.6540149,15.9538044 33.0134799,16.3144714 33.0134799,16.7600645 L33.0134799,16.7600645 L33.0134799,29.5527244 C33.0134799,29.99778 32.6540149,30.3589845 32.2111025,30.3589845 C31.7681902,30.3589845 31.4087251,29.99778 31.4087251,29.5527244 L31.4087251,29.5527244 L31.4087251,16.7600645 C31.4087251,16.3144714 31.7681902,15.9538044 32.2111025,15.9538044 Z M17.5007964,18.963627 C18.8509302,18.963627 19.9079287,20.0262778 19.9079287,21.3824073 L19.9079287,21.3824073 L19.9079287,25.1992425 C19.9079287,26.5102214 18.805997,27.6180227 17.5007964,27.6180227 L17.5007964,27.6180227 L13.7028767,27.6180227 C12.3532779,27.6180227 11.2957444,26.5553719 11.2957444,25.1992425 L11.2957444,25.1992425 L11.2957444,21.3824073 C11.2957444,20.0262778 12.3532779,18.963627 13.7028767,18.963627 L13.7028767,18.963627 Z M17.5007964,20.5761472 L13.7028767,20.5761472 C13.2380327,20.5761472 12.9004993,20.9153139 12.9004993,21.3824073 L12.9004993,21.3824073 L12.9004993,25.1992425 C12.9004993,25.6663358 13.2380327,26.0055026 13.7028767,26.0055026 L13.7028767,26.0055026 L17.5007964,26.0055026 C17.9132184,26.0055026 18.3031738,25.6136602 18.3031738,25.1992425 L18.3031738,25.1992425 L18.3031738,21.3824073 C18.3031738,20.9153139 17.9656404,20.5761472 17.5007964,20.5761472 L17.5007964,20.5761472 Z" fill="#212121"></path>
                        </g>
                    </g>
                </g>
            </g>
        </g>
    </g>
</svg>