<?xml version="1.0" encoding="UTF-8"?>
<svg width="42px" height="42px" viewBox="0 0 42 42" version="1.1" xmlns="http://www.w3.org/2000/svg" xmlns:xlink="http://www.w3.org/1999/xlink">
    <title>icon/handyman@2x</title>
    <g id="SGB---1.0-Home-Page-" stroke="none" stroke-width="1" fill="none" fill-rule="evenodd">
        <g id="SGB---1.0.2-Menu-Services-Dropdown" transform="translate(-702.000000, -236.000000)">
            <g id="DROP-DOWN-MENU" transform="translate(130.000000, 85.000000)">
                <g id="CONTENTS" transform="translate(99.000000, 15.000000)">
                    <g id="COMMERCIAL-MAINT." transform="translate(470.000000, 0.000000)">
                        <g id="icon/handyman" transform="translate(0.000000, 133.000000)">
                            <rect id="colour" x="0" y="0" width="48" height="48"></rect>
                            <path d="M24.0662635,3.00058249 C30.7617162,3.06549159 36.1080608,8.60256229 36.1080608,15.2757542 L36.1080608,15.2757542 L36.1080608,16.4680168 C36.1080608,16.6013704 36.0933041,16.7286431 36.0703176,16.853229 C36.3262905,17.1872492 36.78375,17.9515926 36.78375,19.1616734 C36.78375,20.4134714 35.918777,21.4585219 34.7566824,21.7595926 L34.7566824,21.7595926 L34.7566824,21.8551886 C34.7566824,25.8330269 32.5770811,29.3048855 29.3513108,31.1716936 L29.3513108,31.1716936 L29.3513108,33.9763603 C29.3513108,35.0919764 30.2589932,35.9966027 31.3783784,35.9966027 L31.3783784,35.9966027 L33.4053041,35.9966027 L33.4056778,34.6014615 C33.4100002,34.267545 33.4635405,32.3463401 34.115473,30.3966027 L34.115473,30.3966027 L36.2279595,25.4794916 C36.2950743,25.3233704 36.449027,25.2221178 36.6192973,25.2221178 L36.6192973,25.2221178 L39.6511014,25.2221178 C39.8213716,25.2221178 39.9753243,25.3233704 40.0424392,25.4793502 L40.0424392,25.4793502 L42.1344932,30.344138 C42.8053986,32.3425926 42.8601718,34.2673992 42.8645736,34.6015818 L42.8649527,38.6902593 L42.8103243,38.6902593 C44.1001216,40.121936 44.8921622,42.0067037 44.8921622,44.0772896 L44.8921622,44.0772896 L44.8921622,44.7509865 L43.5406419,44.7509865 L43.5406419,44.0772896 C43.5406419,40.5919966 40.8691014,37.7171886 37.459723,37.3776532 L37.459723,37.3776532 L37.459723,44.7509865 L10.4324392,44.7509865 L10.4324392,37.3777946 C7.02306081,37.7166229 4.35137838,40.5919966 4.35137838,44.077431 L4.35137838,44.077431 L4.35137838,44.7509865 L3,44.7509865 L3,44.077431 C3,40.8240572 4.94320946,38.0209461 7.72968243,36.7412896 L7.72968243,36.7412896 L7.72968243,35.0477138 C6.40129054,34.2443401 5.70261486,32.9519562 5.70261486,31.2827037 C5.70261486,29.6464007 6.81135811,27.7392896 8.93093919,27.2584815 L8.93093919,27.2584815 L9.23685811,27.18933 C9.50318919,27.129229 9.75660811,27.3308855 9.75660811,27.6031077 L9.75660811,27.6031077 L9.75660811,30.3264613 C9.75660811,30.4827239 9.88374324,30.6092896 10.0403919,30.6092896 L10.0403919,30.6092896 L10.8242027,30.6092896 C10.9809932,30.6092896 11.1079865,30.4827239 11.1079865,30.3264613 L11.1079865,30.3264613 L11.1079865,27.6036734 C11.1079865,27.331734 11.3611216,27.1300774 11.6273108,27.1898956 L11.6273108,27.1898956 L11.9323784,27.2584815 C14.0526689,27.7351886 15.1621216,29.6437138 15.1621216,31.2827037 C15.1621216,32.9519562 14.4634459,34.2450471 13.1351959,35.0477138 L13.1351959,35.0477138 L13.1351959,35.9966027 L16.5135,35.9966027 C17.633027,35.9966027 18.5405676,35.0919764 18.5405676,33.9763603 L18.5405676,33.9763603 L18.5405676,31.1716936 C15.3149392,29.3048855 13.1351959,25.8330269 13.1351959,21.8551886 L13.1351959,21.8551886 L13.1351959,21.7595926 C11.9731014,21.4586633 11.1081284,20.4134714 11.1081284,19.1616734 C11.1081284,17.9515926 11.5655878,17.1872492 11.8217027,16.853229 C11.7987162,16.7286431 11.7839595,16.6013704 11.7839595,16.4680168 L11.7839595,16.4680168 L11.7839595,15.1211886 C11.7839595,8.39779462 17.3052568,2.93510775 24.0662635,3.00058249 Z M36.1082027,37.3435724 L34.0811351,37.3435724 L34.0811351,43.6753906 L36.1082027,43.6753906 L36.1082027,37.3435724 Z M30.5823649,37.2392088 C29.9952162,40.3595118 27.2452095,42.7307441 23.9459392,42.7307441 C20.6466689,42.7307441 17.8966622,40.3596532 17.3095135,37.2392088 C17.0526892,37.3010067 16.7891959,37.3435724 16.5136419,37.3435724 L16.5136419,37.3435724 L15.1621216,37.3435724 L15.1621216,43.675532 L32.7298986,43.675532 L32.7298986,37.3435724 L31.3783784,37.3435724 C31.1026824,37.3435724 30.8391892,37.3010067 30.5823649,37.2392088 Z M13.8108851,37.3435724 L11.7839595,37.3435724 L11.7839595,43.6753906 L13.8108851,43.6753906 L13.8108851,37.3435724 Z M28.0000743,31.8364815 C26.7467432,32.3442997 25.3796149,32.6298148 23.9459392,32.6298148 C22.5122635,32.6298148 21.145277,32.3441583 19.8919459,31.8364815 L19.8919459,31.8364815 L19.8919459,33.9765017 C19.8919459,35.053936 19.3723378,36.0040976 18.5797297,36.6202391 C18.8911824,39.2977744 21.1776284,41.3837744 23.9459392,41.3837744 C26.71425,41.3837744 29.0006959,39.297633 29.3121486,36.6202391 C28.5195405,36.0040976 28.0000743,35.053936 28.0000743,33.9765017 L28.0000743,33.9765017 Z M39.04125,26.5689461 L38.8108176,26.5689461 L38.8108176,32.7534108 C39.5953378,33.0322795 40.1623378,33.7730067 40.1623378,34.649633 C40.1623378,35.3742391 39.7744054,36.0060774 39.1981824,36.3622997 C40.0380405,36.6241987 40.8148986,37.0249663 41.5135743,37.5272694 L41.5135743,37.5272694 L41.5131623,34.615597 C41.5086936,34.3462502 41.4568806,32.5680692 40.8723649,30.8222593 L40.8723649,30.8222593 L39.04125,26.5689461 Z M12.4593649,28.9010067 L12.4593649,30.8248047 C12.4593649,31.4497138 11.95125,31.9561178 11.3242297,31.9561178 L11.3242297,31.9561178 L9.54050676,31.9561178 C8.91362838,31.9561178 8.40537162,31.4497138 8.40537162,30.8248047 L8.40537162,30.8248047 L8.40537162,28.9024209 C7.51556757,29.4397946 7.05399324,30.417532 7.05399324,31.2828451 C7.05399324,32.5924815 7.59460135,33.4964007 8.70604054,34.0465017 L8.70604054,34.0465017 L9.08091892,34.2323199 L9.08091892,36.2626027 C9.73021622,36.0948855 10.4073243,35.9966027 11.1079865,35.9966027 L11.1079865,35.9966027 L11.7836757,35.9966027 L11.7836757,34.2323199 L12.1586959,34.0465017 C13.2701351,33.4962593 13.8107432,32.5924815 13.8107432,31.2828451 C13.8107432,30.4161178 13.3491689,29.4369663 12.4593649,28.9010067 L12.4593649,28.9010067 Z M37.459723,26.5690875 L37.2292905,26.5690875 L35.3777432,30.8748653 C34.7643446,32.7170673 34.7568243,34.6311077 34.7568243,34.6497744 L34.7568243,35.9967441 L36.6351892,35.9967441 C36.3115338,35.6384007 36.1082027,35.1691886 36.1082027,34.6497744 C36.1082027,33.7731482 36.6750608,33.0322795 37.459723,32.7535522 L37.459723,32.7535522 L37.459723,26.5690875 Z M38.1351284,33.9765017 C37.7628041,33.9765017 37.4595811,34.2779966 37.4595811,34.6497744 C37.4595811,35.0216936 37.7628041,35.32333 38.1351284,35.32333 C38.5074527,35.32333 38.8108176,35.0216936 38.8108176,34.6497744 C38.8108176,34.2779966 38.5074527,33.9765017 38.1351284,33.9765017 Z M33.4054459,19.2524613 C30.4262838,20.3837744 25.8095473,20.5083603 23.9459392,20.5083603 C22.0823311,20.5083603 17.4655946,20.3837744 14.4864324,19.2524613 L14.4864324,19.2524613 L14.4864324,21.8551886 C14.4864324,27.0537138 18.7297095,31.2828451 23.9459392,31.2828451 C29.1621689,31.2828451 33.4054459,27.0537138 33.4054459,21.8551886 L33.4054459,21.8551886 Z M35.2710405,18.1941178 C35.1177973,18.332138 34.9446892,18.4613906 34.7568243,18.5839966 L34.7568243,18.5839966 L34.7568243,20.3214108 C35.1588041,20.0876532 35.4325135,19.658037 35.4326554,19.1618148 C35.4326554,18.7590673 35.3595811,18.4386229 35.2710405,18.1941178 Z M12.6209797,18.1934108 C12.5324392,18.4379158 12.4595068,18.7585017 12.4595068,19.1618148 C12.4595068,19.658037 12.7332162,20.0876532 13.1351959,20.3207037 L13.1351959,20.3207037 L13.1351959,18.5832896 C12.9473311,18.4613906 12.7743649,18.332138 12.6209797,18.1934108 Z M23.9459392,14.4479158 C17.1985541,14.4479158 13.2682905,15.7832896 13.1357635,16.470138 C13.1391689,17.7933502 17.1823784,19.1616734 23.9459392,19.1616734 C30.7129054,19.1616734 34.7566824,17.791936 34.7566824,16.4681583 C34.6289797,15.7845623 30.6972973,14.4479158 23.9459392,14.4479158 Z M24.6216284,4.38135017 L24.6216284,8.3876128 C24.6216284,8.75939058 24.3192568,9.06074411 23.946223,9.06074411 L23.946223,9.06074411 C23.5727635,9.06074411 23.27025,8.75939058 23.27025,8.3876128 L23.27025,8.3876128 L23.27025,4.38135017 C17.7425676,4.72385522 13.3358311,9.21615825 13.1533581,14.7665219 C15.5581419,13.489835 20.6053784,13.101229 23.9459392,13.101229 C27.2865,13.101229 32.3338784,13.489835 34.7385203,14.767229 C34.5560473,9.21629967 30.1493108,4.72484512 24.6216284,4.38135017 L24.6216284,4.38135017 Z M16.5002526,10.8923583 C16.776292,10.8923583 17.0000426,11.1161088 17.0000426,11.3921483 L17.0000426,11.3921483 L16.9919907,11.4824096 C16.9496747,11.7155677 16.745621,11.8923583 16.5002526,11.8923583 L16.5002526,11.8923583 C16.2237931,11.8923583 16.0000426,11.6686077 16.0000426,11.3925682 L16.0000426,11.3925682 L16.0080944,11.3023069 C16.0504104,11.0691488 16.2544641,10.8923583 16.4998326,10.8923583 L16.4998326,10.8923583 Z M19.5002526,10.8923583 C19.776292,10.8923583 20.0000426,11.1161088 20.0000426,11.3921483 L20.0000426,11.3921483 L19.9919907,11.4824096 C19.9496747,11.7155677 19.745621,11.8923583 19.5002526,11.8923583 L19.5002526,11.8923583 C19.2237931,11.8923583 19.0000426,11.6686077 19.0000426,11.3925682 L19.0000426,11.3925682 L19.0080944,11.3023069 C19.0504104,11.0691488 19.2544641,10.8923583 19.4998326,10.8923583 L19.4998326,10.8923583 Z" fill="#212121"></path>
                        </g>
                    </g>
                </g>
            </g>
        </g>
    </g>
</svg>