<?xml version="1.0" encoding="UTF-8"?>
<svg width="39px" height="39px" viewBox="0 0 39 39" version="1.1" xmlns="http://www.w3.org/2000/svg" xmlns:xlink="http://www.w3.org/1999/xlink">
    <title>icon/install@2x</title>
    <g id="SGB---1.0-Home-Page-" stroke="none" stroke-width="1" fill="none" fill-rule="evenodd">
        <g id="SGB---1.0.2-Menu-Services-Dropdown" transform="translate(-234.000000, -306.000000)">
            <g id="DROP-DOWN-MENU" transform="translate(130.000000, 85.000000)">
                <g id="CONTENTS" transform="translate(99.000000, 15.000000)">
                    <g id="Group-41" transform="translate(0.000000, 133.000000)">
                        <g id="icon/install" transform="translate(0.000000, 68.000000)">
                            <rect id="colour" x="0" y="0" width="48" height="48"></rect>
                            <path d="M27.5301385,24.042551 C27.7799206,23.7895808 28.1840051,23.7895808 28.4342135,24.042551 L28.4342135,24.042551 L34.5986326,30.2852165 C34.9217297,30.612869 35.6318612,30.9094399 36.0917843,30.9094399 L36.0917843,30.9094399 L36.1413775,30.9095777 C36.6027008,30.9131972 40.1621131,31.0036223 42.0341275,32.8995297 C43.9965798,34.8870293 44.0004161,38.7502209 44,38.9133996 C43.9961536,39.7349052 43.5528542,40.0073015 43.3618944,40.0867324 C43.171361,40.1661633 42.6658291,40.2874681 42.0938024,39.7072771 L42.0938024,39.7072771 L39.5120097,37.0929639 C39.3146562,36.893955 38.9949691,36.893955 38.7976156,37.0929639 L38.7976156,37.0929639 L37.1795728,38.7312266 C36.9826456,38.9306672 36.9826456,39.2557296 37.1799991,39.4551703 L37.1799991,39.4551703 L39.7609393,42.0694834 C40.3346711,42.6501061 40.2140425,43.1612268 40.1356126,43.3537604 C40.0571827,43.5467258 39.7877931,43.9956831 38.9774929,44 L38.9774929,44 L38.8843183,43.9992738 C38.2632976,43.9893618 34.8563187,43.8500556 33.0385597,42.0099102 C31.1829923,40.129843 31.0784958,36.5717671 31.0733422,36.0541163 L31.0731237,35.9960403 C31.0756812,35.5306787 30.7824215,34.8075984 30.456767,34.4782191 L30.456767,34.4782191 L24.2932004,28.2355536 C24.0434182,27.9825834 24.0434182,27.5729098 24.2932004,27.3199396 C24.5429825,27.0669694 24.9479195,27.0669694 25.1977016,27.3199396 L25.1977016,27.3199396 L31.3616945,33.5630368 C31.9307375,34.1397743 32.3565607,35.1883487 32.3522982,36.0020839 L32.3522982,36.0020839 L32.3527362,36.0448001 C32.3590649,36.4481011 32.4563418,39.5877383 33.9434873,41.0938646 C35.2047593,42.3716662 37.610511,42.6362921 38.565736,42.690685 L38.565736,42.690685 L36.2750716,40.3712159 C35.5798588,39.6666982 35.5798588,38.520562 36.2746453,37.8160443 L36.2746453,37.8160443 L37.8931144,36.17735 C38.2289989,35.8371784 38.6769871,35.6493934 39.1543864,35.6493934 C39.6317858,35.6493934 40.0797739,35.8371784 40.4156584,36.17735 L40.4156584,36.17735 L42.7058966,38.496819 C42.6504842,37.5285389 42.3866358,35.0881967 41.1296262,33.8151436 C39.5405684,32.2066676 36.1540167,32.214438 36.1015881,32.2045092 L36.1015881,32.2045092 L36.0917843,32.2045092 C35.2878779,32.2045092 34.2597643,31.7741145 33.6937051,31.2003988 L33.6937051,31.2003988 L27.5301385,24.958165 C27.2803563,24.7056264 27.2803563,24.2950895 27.5301385,24.042551 Z M39.1464156,6.86233483 L41.6681071,9.41664311 L37.9801971,13.1520545 C37.6430338,13.4935211 37.1950457,13.6817379 36.7189251,13.6817379 C36.4657329,13.6817379 36.221492,13.6243231 35.9964323,13.522876 L35.9964323,13.522876 L20.6326982,29.0827015 L21.7993429,30.2638047 C22.4945557,30.9683224 22.4945557,32.114027 21.7993429,32.8185447 L21.7993429,32.8185447 L11.2812122,43.4713527 C10.9440489,43.8123876 10.4960608,43.999741 10.0199402,43.999741 C9.54381955,43.999741 9.09583141,43.8123876 8.75909437,43.4717844 L8.75909437,43.4717844 L5.52258252,40.1922374 C5.18627173,39.8524975 5,39.3992233 5,38.9170258 C4.99957448,38.4343967 5.18499298,37.9802591 5.52215627,37.6387925 L5.52215627,37.6387925 L16.040287,26.9864161 C16.3774503,26.6449495 16.8250122,26.4571645 17.301559,26.4571645 C17.7781059,26.4571645 18.2256677,26.6453812 18.5624048,26.9868478 L18.5624048,26.9868478 L19.7286232,28.1675193 L35.0915048,12.6068304 C34.9913362,12.3784665 34.9350713,12.13154 34.9350713,11.8742529 C34.934645,11.3920554 35.1204898,10.9387812 35.4576531,10.5973146 L35.4576531,10.5973146 L39.1464156,6.86233483 Z M14.8740686,29.9983155 L6.42580504,38.5539747 C6.33075142,38.6511049 6.27832274,38.7797485 6.27832274,38.9157308 C6.27832274,39.0521447 6.33075142,39.1794932 6.42580504,39.2753283 L6.42580504,39.2753283 L9.66274314,42.5553071 C9.85285038,42.7469773 10.1866037,42.747409 10.3771372,42.5548754 L10.3771372,42.5548754 L18.8245482,33.9992161 L14.8740686,29.9983155 Z M17.301559,27.7522337 C17.1664379,27.7522337 17.0398419,27.8053316 16.944362,27.9020301 L16.944362,27.9020301 L15.7785698,29.0827015 L19.7290495,33.0836022 L20.8948416,31.9029307 C21.0917689,31.70349 21.0917689,31.3788593 20.8948416,31.1794187 L20.8948416,31.1794187 L17.6579035,27.9020301 C17.5624237,27.8048999 17.4362538,27.7522337 17.301559,27.7522337 Z M10.6191781,5.00070085 C11.2684159,5.01124684 14.6496206,5.16476505 16.4521718,6.99071937 C18.3081424,8.86996987 18.4122793,12.4287742 18.4173929,12.9465062 L18.4176079,13.0045893 C18.4150504,13.4695192 18.7091625,14.1925995 19.0335383,14.5215471 L19.0335383,14.5215471 L24.5,20.1930817 C24.7493559,20.4460519 24.7493559,20.8561571 24.5,21.1086957 C24.2506441,21.3616658 23.8457071,21.3616658 23.595925,21.1086957 L23.595925,21.1086957 L18.1294633,15.4380245 C17.5604203,14.8621503 17.1345971,13.8135759 17.1384334,12.9989774 C17.1384334,12.9648739 17.1303346,9.51006077 15.5476705,7.90719671 C14.290661,6.63457532 11.8814993,6.36692767 10.9249956,6.310808 L10.9249956,6.310808 L13.2152337,8.63070874 C13.5511182,8.97088027 13.7361105,9.4245862 13.7361105,9.90764703 C13.7361105,10.3907079 13.5511182,10.8444138 13.2152337,11.1845853 L13.2152337,11.1845853 L11.5971909,12.8232796 C10.9024043,13.5277973 9.77071212,13.5269339 9.07507307,12.8232796 L9.07507307,12.8232796 L6.78483493,10.5038106 C6.84024736,11.4720907 7.10409575,13.9120012 8.36153154,15.1846226 C9.85428284,16.6960207 12.9434083,16.7906682 13.3459331,16.7955156 L13.3997997,16.7956887 C14.2028536,16.7956887 15.2322459,17.2260834 15.7978789,17.7997991 L15.7978789,17.7997991 L21.2643406,23.4700386 C21.5141228,23.7225771 21.5141228,24.1326824 21.2643406,24.3856526 C21.1394496,24.5121377 20.9757698,24.5751644 20.81209,24.5751644 C20.6484102,24.5751644 20.4847305,24.5121377 20.3598394,24.3856526 L20.3598394,24.3856526 L14.8929514,18.7154131 C14.5681493,18.3864655 13.8384103,18.0993918 13.3946847,18.0911897 L13.3946847,18.0911897 L13.3378939,18.0910973 C12.829605,18.0865669 9.31262072,17.9803504 7.45745652,16.1010999 C5.49543043,14.1144637 5.49116794,10.2508404 5.49199074,10.08723 C5.49585668,9.26572437 5.93958233,8.99289645 6.12968957,8.91346553 C6.32064931,8.83446631 6.82575488,8.71272979 7.39820785,9.29292082 L7.39820785,9.29292082 L9.98000059,11.9076657 C10.1765016,12.106243 10.4970411,12.1071063 10.6939684,11.9076657 L10.6939684,11.9076657 L12.3120112,10.2689714 C12.5085121,10.0695307 12.5085121,9.74533169 12.3120112,9.54589102 L12.3120112,9.54589102 L9.73021843,6.93114618 C9.15691296,6.35052346 9.27754154,5.83940279 9.35554519,5.64643747 C9.43354883,5.45347215 9.70336471,5.00451481 10.5140911,5.00019791 L10.5140911,5.00019791 Z M39.1468418,8.69356277 L36.3621543,11.5137919 C36.2666745,11.6096271 36.2142458,11.7387023 36.2142458,11.8746846 C36.2142458,12.0110985 36.2666745,12.1401738 36.3625806,12.2364406 C36.5539666,12.4311327 36.8868674,12.4302693 37.0765484,12.2364406 L37.0765484,12.2364406 L39.8603833,9.41664311 L39.1468418,8.69356277 Z" fill="#212121"></path>
                        </g>
                    </g>
                </g>
            </g>
        </g>
    </g>
</svg>