<?xml version="1.0" encoding="UTF-8"?>
<svg width="42px" height="43px" viewBox="0 0 42 43" version="1.1" xmlns="http://www.w3.org/2000/svg" xmlns:xlink="http://www.w3.org/1999/xlink">
    <title>icon/maintenance@2x</title>
    <g id="SGB---1.0-Home-Page-" stroke="none" stroke-width="1" fill="none" fill-rule="evenodd">
        <g id="SGB---1.0.2-Menu-Services-Dropdown" transform="translate(-232.000000, -372.000000)">
            <g id="DROP-DOWN-MENU" transform="translate(130.000000, 85.000000)">
                <g id="CONTENTS" transform="translate(99.000000, 15.000000)">
                    <g id="Group-41" transform="translate(0.000000, 133.000000)">
                        <g id="icon/maintenance" transform="translate(0.000000, 136.000000)">
                            <rect id="colour" x="0" y="0" width="48" height="48"></rect>
                            <path d="M42.3749999,22.907067 C43.8226284,22.907067 45,24.1815518 45,25.7485899 C45,26.3999163 44.7979249,27.0161562 44.4155138,27.5315837 L44.3617729,27.5973447 C43.9735703,28.0682376 41.5707504,30.9537384 38.9422291,34.0802172 L38.5142865,34.5889827 C38.2996086,34.8440784 38.0840826,35.0999858 37.868662,35.3555464 L37.2236703,36.1200291 C36.2952275,37.2194319 35.386671,38.2905656 34.5755924,39.2391522 C32.83745,41.2726943 30.8641298,42.3035493 28.7109676,42.3035493 L16.9920935,42.3035493 C15.9006903,42.3035493 15.2302358,42.4167161 14.5963424,43.0378977 L11.8013818,45.7711956 C11.6378443,45.92785 11.4570142,46 11.2658087,46 C11.0607692,46 10.8700577,45.9184606 10.7287533,45.7697131 C10.4471328,45.4737005 10.4589905,45.0032432 10.7549391,44.7215618 L13.551876,41.985793 C14.364129,41.1911549 15.4570144,40.8210157 16.9920935,40.8210157 L28.7109676,40.8210157 C30.4397226,40.8210157 31.9911061,39.9893143 33.4535568,38.2789646 C36.132524,35.1451638 39.868897,30.6855757 41.8571438,28.3066515 L42.122946,27.9885549 C42.799992,27.1781346 43.2169376,26.6777253 43.2292489,26.662819 L43.3073122,26.568431 L43.3013833,26.5402629 C43.437747,26.3277664 43.5177865,26.0470733 43.5177865,25.7485899 C43.5177865,24.8976155 42.9367588,24.3896007 42.3749999,24.3896007 C42.1042489,24.3896007 41.8616599,24.493378 41.65415,24.698956 L41.59832,24.7399728 L38.772727,27.565682 C38.3945978,27.9434604 37.9768761,28.3611342 37.5666235,28.7722692 L37.2179053,29.1219862 C36.3561709,29.9868603 35.5904763,30.7607892 35.3838928,30.9868756 C35.2361656,31.1479775 35.0365608,31.2359412 34.8285568,31.2359412 C34.6427861,31.2359412 34.4649205,31.1667563 34.3275687,31.0407409 C34.0256912,30.7644955 34.0054343,30.2940381 34.2816201,29.9920955 C34.5204486,29.7311695 35.0557915,29.1878758 35.7224572,28.5188701 L36.098124,28.1424321 C36.4203779,27.8199136 36.7635591,27.4773065 37.1121538,27.1293229 L37.7327072,26.510118 C37.8577072,26.3852393 37.981808,26.2613489 38.1042546,26.1391851 L38.4658772,25.7786122 C39.4129444,24.8348352 40.2058298,24.0488156 40.4580037,23.7985639 L40.5760867,23.6967632 C41.0642291,23.1946785 41.7198615,22.907067 42.3749999,22.907067 Z M31.5364618,30.2731344 C31.766699,30.2751111 31.9870547,30.3877837 32.1249006,30.5740888 C33.0764817,31.8199112 32.7948611,33.4077048 32.2148215,34.4795767 C31.5354737,35.736271 30.4677859,36.4859389 29.3590902,36.4859389 C29.3077068,36.4859389 29.2563234,36.4844564 29.2039518,36.4819855 L28.9425882,36.4661718 L28.9425882,36.4968108 L19.7558289,36.4968108 C19.5334968,36.4938458 19.3487142,36.4142831 19.2103743,36.2724541 C19.0725284,36.1301308 18.9979237,35.9433316 19.0008881,35.7446721 C19.006817,35.3419171 19.3388328,35.0142771 19.7415008,35.0142771 L29.1896238,35.0142771 C29.1822127,35.0152655 29.2059281,35.0187247 29.2286554,35.0236665 L29.2553352,35.0295967 L29.3205526,35.0315734 C29.7686752,35.0315734 30.4835962,34.566552 30.9045448,33.7882218 C31.2326081,33.1818655 31.2988136,32.5186788 31.0903156,31.9212177 L31.0325092,31.7556681 L16.3131409,31.7556681 C14.0428839,31.7556681 12.5330024,32.1633649 11.4164016,33.0780882 L4.22124315,38.9770897 C4.08685579,39.0887739 3.91837752,39.1495578 3.74545261,39.1495578 C3.52262652,39.1495578 3.31314034,39.0512164 3.17084784,38.8792425 C2.90899012,38.5629686 2.95296246,38.0920171 3.26966208,37.8296086 L10.4786545,31.9315954 C12.2736151,30.4614162 14.5394255,30.2731344 16.3131409,30.2731344 L31.5364618,30.2731344 Z M25.6385366,3.00098836 C25.9932797,3.00098836 26.2986157,3.24906566 26.3692679,3.59153094 L26.8910071,6.16817448 L27.0239122,6.21462721 C27.4211454,6.35299702 27.7753945,6.50075621 28.1069162,6.66581162 L28.2343866,6.72906639 L30.4374499,5.27667756 C30.5535566,5.2020567 30.6914025,5.16202829 30.8327068,5.16202829 C31.0328057,5.16202829 31.2200586,5.2401084 31.3608689,5.38243163 C31.7319164,5.75504176 32.1187741,6.12666354 32.5105725,6.50223874 C32.909782,6.88522661 33.3134382,7.27315626 33.7082011,7.66899275 C33.9596833,7.91954094 33.9987149,8.3138949 33.8015805,8.60793075 L32.3173907,10.8104816 L32.3801377,10.9389679 C32.5466397,11.2804448 32.694367,11.6402063 32.8317188,12.0380195 L32.8766793,12.1694708 L35.4982209,12.7397521 C35.8445648,12.8119021 36.0930826,13.1182924 36.091118,13.4701471 L36.091118,16.6986112 C36.0876478,17.0420649 35.83913,17.3440076 35.5006913,17.4141808 L32.8766793,17.9849563 L32.8317188,18.1164076 C32.694367,18.5142208 32.5466397,18.8739823 32.3801377,19.2154593 L32.3178848,19.3434513 L33.8010864,21.5618159 C33.9898216,21.8499216 33.95079,22.2393338 33.707707,22.4859286 C33.3134382,22.8817651 32.909782,23.2692005 32.5105725,23.6521884 C32.1187741,24.0277636 31.7319164,24.3993854 31.361363,24.7710072 C31.2200586,24.9143187 31.0328057,24.9923989 30.8327068,24.9923989 C30.6914025,24.9923989 30.5535566,24.9523704 30.4344855,24.876267 L28.2180822,23.4416686 L28.0920941,23.503935 C27.7561257,23.670473 27.3915012,23.8221856 27.008596,23.9551195 L26.8751968,24.0015722 L26.3692679,26.5653671 C26.3020742,26.9157392 25.9957501,27.1692525 25.6405129,27.1692525 L22.3653151,27.1692525 C22.0081017,27.1692525 21.7017776,26.9157392 21.635078,26.5668496 L21.1291491,24.0015722 L20.9952558,23.9551195 C20.6128447,23.8226798 20.2482202,23.6709672 19.9122518,23.503935 L19.7857696,23.4416686 L17.5683782,24.8767612 C17.4502952,24.9523704 17.3124493,24.9923989 17.1711449,24.9923989 C16.9710461,24.9923989 16.7837931,24.9143187 16.6429829,24.7719955 C16.2714413,24.3988912 15.8835955,24.0267752 15.491303,23.6502117 C15.0930816,23.267718 14.6899195,22.8807767 14.2951567,22.4854344 C14.0530618,22.2393338 14.0140302,21.8499216 14.2037535,21.5598392 L15.6864611,19.3429572 L15.623714,19.2154593 C15.4577061,18.8754649 15.3094848,18.5161975 15.172133,18.1164076 L15.1271725,17.9849563 L12.5056309,17.414675 C12.1642277,17.3440076 11.916204,17.0420649 11.9127338,16.6961404 L11.9127338,13.4711354 C11.9107692,13.1182924 12.159287,12.8114079 12.5031605,12.7402463 L15.1271725,12.1694708 L15.172133,12.0380195 C15.3094848,11.6387238 15.4577061,11.2789623 15.623714,10.9389679 L15.6864611,10.8109758 L14.2017772,8.60743657 C14.0051369,8.3138949 14.0441685,7.91954094 14.2951567,7.66998111 C14.6889314,7.27414461 15.0915994,6.88819168 15.4893267,6.50668634 C15.8821133,6.12913443 16.2709473,5.75603012 16.6419947,5.38341999 C16.7837931,5.2401084 16.9710461,5.16202829 17.1711449,5.16202829 C17.3124493,5.16202829 17.4502952,5.2020567 17.5693663,5.2781601 L19.7694652,6.72906639 L19.8969356,6.66581162 C20.2279633,6.50125038 20.5822123,6.35349119 20.9794455,6.21462721 L21.1128447,6.16817448 L21.6345839,3.59004841 C21.7002954,3.26685606 21.9656116,3.0291565 22.294663,3 L25.6385366,3.00098836 Z M25.0224299,4.48352204 L22.981916,4.48352204 L22.5090899,6.81208828 C22.4522717,7.08685119 22.2383389,7.30972542 21.9646234,7.37841615 C21.3307301,7.54643663 20.7047419,7.81230434 20.0491095,8.19183296 C19.9374494,8.25607609 19.8099791,8.29017436 19.6805324,8.29017436 C19.5357696,8.29017436 19.394959,8.24816924 19.2739118,8.1686066 L17.254643,6.85557594 L17.1133386,6.99345157 C16.9102754,7.1916169 16.7072121,7.38533464 16.505137,7.57806402 C16.3099789,7.76436908 16.116303,7.94919162 15.9246034,8.13599086 L15.7773702,8.27930245 L17.1261845,10.3034551 C17.2852754,10.5376954 17.2986153,10.8351905 17.1622517,11.0812911 C16.8139315,11.6817173 16.532805,12.3537992 16.352469,13.0204452 C16.2808287,13.2897721 16.0673899,13.4938676 15.7961449,13.5541573 L13.394959,14.0582188 L13.394959,16.09522 L15.7976271,16.6160835 C16.0673899,16.6758791 16.2808287,16.8799745 16.352469,17.1483131 C16.5278643,17.7971687 16.8084967,18.4643089 17.164722,19.0775836 C17.3030619,19.3212133 17.289722,19.6300745 17.1286548,19.8633265 L15.7931805,21.8751247 L15.9399196,22.0184363 C16.1365599,22.2096831 16.331718,22.4034009 16.5278643,22.5986011 C16.7210461,22.7903422 16.9152161,22.9835657 17.1133386,23.1762951 L17.2556311,23.3151591 L19.2744059,21.9858205 C19.3900186,21.9126822 19.5268763,21.8726538 19.6681806,21.8726538 C19.8015798,21.8726538 19.9320146,21.9087288 20.0466391,21.9764312 C20.6716392,22.3386636 21.2981214,22.5995895 21.9626471,22.7750226 C22.2383389,22.8447017 22.4522717,23.067576 22.5095839,23.3433272 L22.9814219,25.6867188 L25.0224299,25.6867188 L25.4947619,23.3418447 C25.5515801,23.067576 25.7655129,22.8447017 26.0387343,22.776011 C26.7057304,22.5995895 27.3322126,22.3386636 27.9547423,21.9779137 C28.0718372,21.9087288 28.2022719,21.8726538 28.3356712,21.8726538 C28.4764814,21.8726538 28.6138332,21.9126822 28.7333984,21.9877973 L30.7487147,23.3151591 L30.8905132,23.1762951 C31.0871535,22.9845541 31.2798413,22.7933072 31.4715409,22.6030487 C31.6691693,22.4063659 31.8653156,22.2111657 32.0639322,22.0184363 L32.2106713,21.8751247 L30.8776673,19.8667857 C30.7141298,19.6305687 30.7007898,19.3212133 30.8401179,19.0756069 C31.1958492,18.4623322 31.4764816,17.7956862 31.6513828,17.1493015 C31.7230231,16.8799745 31.9359678,16.6758791 32.2077069,16.6155894 L34.6088928,16.09522 L34.6088928,14.0582188 L32.2047425,13.5536631 C31.9359678,13.4938676 31.7230231,13.2897721 31.6518768,13.0214335 C31.4715409,12.3552817 31.1904144,11.6831998 30.8391298,11.0768435 C30.7052365,10.8351905 30.7180823,10.5376954 30.8766792,10.3049376 L32.2264816,8.27930245 L32.0792484,8.13648504 C31.8860666,7.94820326 31.6909085,7.76140402 31.4942681,7.57361642 C31.2936752,7.38236957 31.0920942,7.19013437 30.8905132,6.99345157 L30.7492088,6.85557594 L28.7309281,8.16761825 C28.6088925,8.24816924 28.4680822,8.29017436 28.3233194,8.29017436 C28.1938727,8.29017436 28.0664024,8.25607609 27.9542482,8.19133879 C27.2986158,7.81230434 26.6731217,7.54643663 26.0412046,7.3794045 C25.7655129,7.30972542 25.5515801,7.08685119 25.4942679,6.81109993 L25.0224299,4.48352204 Z M24.0019259,11.3554116 C26.0533094,11.3554116 27.7227759,13.0247445 27.7227759,15.0770653 C27.7227759,17.1293861 26.0533094,18.7992132 24.0019259,18.7992132 C21.9505424,18.7992132 20.2810759,17.1293861 20.2810759,15.0770653 C20.2810759,13.0247445 21.9505424,11.3554116 24.0019259,11.3554116 Z M24.0019259,12.8379453 C22.7677361,12.8379453 21.7632894,13.8426089 21.7632894,15.0770653 C21.7632894,16.3120159 22.7677361,17.3166795 24.0019259,17.3166795 C25.2366097,17.3166795 26.2405624,16.3120159 26.2405624,15.0770653 C26.2405624,13.8426089 25.2366097,12.8379453 24.0019259,12.8379453 Z" fill="#212121"></path>
                        </g>
                    </g>
                </g>
            </g>
        </g>
    </g>
</svg>