<?xml version="1.0" encoding="UTF-8"?> <svg xmlns="http://www.w3.org/2000/svg" width="79" height="79" viewBox="0 0 79 79"><g fill="#FFF" fill-rule="nonzero"><path stroke="#212121" stroke-width=".25" d="M74.15 1H4.85A3.85 3.85 0 0 0 1 4.85v66.733c0 .71.575 1.284 1.283 1.284H8.7v3.85c0 .708.575 1.283 1.283 1.283h7.7c.71 0 1.284-.575 1.284-1.283v-3.85h41.066v3.85c0 .708.575 1.283 1.284 1.283h7.7c.708 0 1.283-.575 1.283-1.283v-3.85h6.417c.708 0 1.283-.575 1.283-1.284V4.85A3.85 3.85 0 0 0 74.15 1zm1.283 39.783H3.567v-2.566h71.866v2.566zM29.105 30.517a6.417 6.417 0 0 0-12.577 0h-5.186a11.55 11.55 0 0 1 22.949 0h-5.186zm-2.673 0h-7.23a3.827 3.827 0 0 1 7.229 0zm45.151 2.566v2.567H7.417v-2.567h64.166zm-9.111-2.566a6.417 6.417 0 0 0-12.577 0h-5.186a11.55 11.55 0 0 1 22.949 0h-5.186zm-2.674 0H52.57a3.827 3.827 0 0 1 7.228 0h.001zM74.15 35.65V31.8c0-.709-.575-1.283-1.283-1.283h-2.632c-.653-7.275-6.75-12.848-14.053-12.848-7.303 0-13.4 5.573-14.052 12.848h-5.262c-.653-7.275-6.75-12.848-14.053-12.848-7.303 0-13.4 5.573-14.052 12.848h-2.63c-.708 0-1.283.574-1.283 1.283v3.85H3.567V13.833h71.866V35.65H74.15zM4.85 3.567h69.3c.709 0 1.283.574 1.283 1.283v6.417H3.567V4.85c0-.709.574-1.283 1.283-1.283zM16.4 75.433h-5.133v-2.566H16.4v2.566zm51.333 0H62.6v-2.566h5.133v2.566zM7.417 70.3V48.483h64.166V70.3H7.417zm66.733 0V47.2c0-.709-.575-1.283-1.283-1.283H6.133c-.708 0-1.283.574-1.283 1.283v23.1H3.567V43.35h71.866V70.3H74.15z"></path><path d="M6.133 6.133H8.7V8.7H6.133zM11.267 6.133h2.566V8.7h-2.566zM16.4 6.133h2.567V8.7H16.4z"></path><path stroke="#212121" stroke-width=".25" d="M31.8 53.617h1.412a6.417 6.417 0 0 0 12.576 0H47.2V51.05H31.8v2.567zm7.7 2.566a3.85 3.85 0 0 1-3.614-2.566h7.228a3.85 3.85 0 0 1-3.614 2.566z"></path></g></svg> 