<?xml version="1.0" encoding="UTF-8"?>
<svg width="36px" height="43px" viewBox="0 0 36 43" version="1.1" xmlns="http://www.w3.org/2000/svg" xmlns:xlink="http://www.w3.org/1999/xlink">
    <title>icon/onsite-repair@2x</title>
    <g id="SGB---1.0-Home-Page-" stroke="none" stroke-width="1" fill="none" fill-rule="evenodd">
        <g id="SGB---1.0.2-Menu-Services-Dropdown" transform="translate(-235.000000, -235.000000)">
            <g id="DROP-DOWN-MENU" transform="translate(130.000000, 85.000000)">
                <g id="CONTENTS" transform="translate(99.000000, 15.000000)">
                    <g id="icon/onsite-repair" transform="translate(0.000000, 133.000000)">
                        <rect id="colour" x="0" y="0" width="48" height="48"></rect>
                        <path d="M36.3130503,2 C36.4252321,2 36.5341355,2.0230776 36.636687,2.06862012 C39.2741367,3.24016566 40.9783775,5.85498016 40.9783775,8.73038772 C40.9783775,11.4626325 39.4777031,13.9291785 37.0551916,15.1916049 L37.0551916,15.1916049 L37.479126,23.3890539 C37.490088,23.6004284 37.417759,23.8035317 37.2754572,23.960684 C37.1332578,24.1179385 36.9379898,24.2106573 36.7258177,24.2214813 C36.7116798,24.2221961 36.6974393,24.2226046 36.6830965,24.2226046 C36.2605964,24.2226046 35.9125768,23.8922681 35.8907551,23.4706424 L35.8907551,23.4706424 L35.4393644,14.7447572 C35.4223578,14.4149313 35.6153719,14.1059366 35.9197482,13.97564 C38.0265116,13.0735714 39.3878552,11.0146616 39.3878552,8.73048983 C39.3878552,6.93309206 38.5411134,5.2511844 37.1083627,4.17439997 L37.1083627,4.17439997 L37.1083627,7.81933313 C37.1083627,8.81299736 36.2972731,9.62142811 35.3002385,9.62142811 L35.3002385,9.62142811 L32.025248,9.62142811 C31.0283158,9.62142811 30.2171238,8.81299736 30.2171238,7.81933313 L30.2171238,7.81933313 L30.2171238,4.17429785 C28.7843731,5.25108228 27.9376313,6.93298995 27.9376313,8.73038772 C27.9376313,10.9578866 29.2528728,12.9958632 31.2882292,13.9225411 C31.5846144,14.0573307 31.7668714,14.3543782 31.7522212,14.6788941 L31.7522212,14.6788941 L31.2411026,26.0853548 L39.0524369,26.0853548 C40.6776894,26.0853548 42,27.4032287 42,29.0230515 L42,29.0230515 L42,29.0925906 C42,29.9099052 41.6610984,30.6820858 41.0645372,31.2377862 C41.6610984,31.7934866 42,32.5656671 42,33.3829818 L42,33.3829818 L42,33.397584 C42,34.2148986 41.6612008,34.9870791 41.0646397,35.5426774 C41.6612008,36.0984799 42,36.8705584 42,37.687873 L42,37.687873 L42,37.7719122 C42,38.5893289 41.6612008,39.3615095 41.0646397,39.9171078 C41.6612008,40.4728082 42,41.2449887 42,42.0622012 C42,43.6821261 40.6776894,45 39.0524369,45 L39.0524369,45 L23.739267,45 C22.0745716,45 20.4672476,44.430208 19.1820236,43.3900822 C18.9915707,44.3129819 18.1704412,45 17.1989163,45 L17.1989163,45 L6.79520994,45 C6.35672778,45 6,44.6444416 6,44.2073968 L6,44.2073968 L6,26.8782644 C6,26.4411175 6.35672778,26.085559 6.79520994,26.085559 L6.79520994,26.085559 L17.1989163,26.085559 C18.0531369,26.085559 18.8071623,26.618284 19.0983227,27.4036371 C19.6407907,27.0642126 20.159388,26.6945626 20.6422307,26.3029582 C21.0680091,25.9577132 21.4800594,25.5853061 21.8670097,25.1962546 C22.0175074,25.0448206 22.2182052,24.9614962 22.4320165,24.9614962 C22.6430616,24.9614962 22.8418129,25.0430847 22.9916959,25.1911489 C23.3031412,25.4988162 23.3053951,26.0016219 22.9968184,26.3121484 C22.5707326,26.7407178 22.1162683,27.1513152 21.646027,27.5327083 C20.8945628,28.1421203 20.0801949,28.6939404 19.2239253,29.1741791 L19.2239253,29.1741791 L19.2239253,41.2652072 L19.8207938,41.8386753 C20.8784783,42.8551108 22.2700445,43.4147936 23.739267,43.4147936 L23.739267,43.4147936 L39.052232,43.4147936 C39.8004178,43.4147936 40.4090679,42.8081387 40.4090679,42.0624055 C40.4090679,41.3165701 39.8004178,40.7099152 39.052232,40.7099152 L39.052232,40.7099152 L37.189195,40.7099152 C36.7506104,40.7099152 36.3938827,40.3542547 36.3938827,39.9172099 C36.3938827,39.4801651 36.7506104,39.1245046 37.189195,39.1245046 L37.189195,39.1245046 L39.052232,39.1245046 C39.8004178,39.1245046 40.4090679,38.5178496 40.4090679,37.7720143 L40.4090679,37.7720143 L40.4090679,37.6879751 C40.4090679,36.9421398 39.8004178,36.3354848 39.052232,36.3354848 L39.052232,36.3354848 L37.189195,36.3354848 C36.7506104,36.3354848 36.3938827,35.9798243 36.3938827,35.5427795 C36.3938827,35.1057347 36.7506104,34.7500742 37.189195,34.7500742 L37.189195,34.7500742 L39.052232,34.7500742 C39.8004178,34.7500742 40.4090679,34.1434193 40.4090679,33.3976861 L40.4090679,33.3976861 L40.4090679,33.3830839 C40.4090679,32.6372485 39.8004178,32.0305936 39.052232,32.0305936 L39.052232,32.0305936 L37.189195,32.0305936 C36.7506104,32.0305936 36.3938827,31.6749331 36.3938827,31.2378883 C36.3938827,30.8008435 36.7506104,30.445183 37.189195,30.445183 L37.189195,30.445183 L39.052232,30.445183 C39.8004178,30.445183 40.4090679,29.838528 40.4090679,29.0926927 L40.4090679,29.0926927 L40.4090679,29.0232557 C40.4090679,28.2775225 39.8004178,27.6707654 39.052232,27.6707654 L39.052232,27.6707654 L30.4093183,27.6707654 C29.9708362,27.6707654 29.6140059,27.315207 29.6140059,26.8781622 C29.6140059,25.4429602 29.6730166,24.2674323 29.7301832,23.1306052 L29.7301832,23.1306052 L29.7311053,23.1120206 C29.7745437,22.24416 29.8196213,21.3467885 29.8372425,20.3397475 C29.8433895,19.9993018 29.8407258,19.6546695 29.8376523,19.255713 L29.8376523,19.255713 L29.8374474,19.2255896 C29.8356033,18.9836832 29.8336568,18.7281958 29.8336568,18.4527964 C29.8336568,17.8046834 29.3055317,17.2773705 28.6565166,17.2773705 L28.6565166,17.2773705 L28.6281382,17.2771663 C28.5171858,17.2771663 28.1319772,17.3010608 27.8363091,17.6087281 C27.5817231,17.873712 27.5403336,18.1972068 27.5382847,18.3664085 C27.5358259,18.5649167 27.5018128,18.7642418 27.4371674,18.9588697 C26.9714338,20.3637441 26.3625788,21.6969349 25.627404,22.9213752 C25.4845899,23.1592991 25.2229349,23.307057 24.9444783,23.307057 C24.801152,23.307057 24.660182,23.2681518 24.5366284,23.194426 C24.1603328,22.969879 24.0373939,22.482186 24.2626795,22.1072261 C24.9376142,20.9832653 25.4974985,19.7565786 25.9271701,18.4611696 C25.9404885,18.420937 25.947455,18.3825424 25.9478648,18.347007 C25.9527823,17.9442723 26.0553339,17.1704579 26.6874449,16.5123379 C27.3988514,15.7716082 28.2812456,15.6916535 28.6275235,15.6916535 L28.6275235,15.6916535 L28.6655321,15.692062 C29.1887397,15.6931852 29.6889987,15.8385945 30.1269686,16.1150152 L30.1269686,16.1150152 L30.1428482,15.1220657 C27.7989152,13.8381956 26.346904,11.3978927 26.346904,8.73048983 C26.346904,5.85508227 28.0511449,3.24016566 30.6885946,2.06882434 C30.7910437,2.02328183 30.9000495,2 31.0123337,2 C31.1664172,2 31.3161978,2.04431716 31.4453861,2.12794793 C31.6722084,2.27478681 31.8075437,2.52333051 31.8075437,2.79280743 L31.8075437,2.79280743 L31.8075437,7.8191289 C31.8075437,7.93870354 31.9051777,8.03591537 32.0251456,8.03591537 L32.0251456,8.03591537 L35.300136,8.03591537 C35.4201039,8.03591537 35.5177379,7.93870354 35.5177379,7.8191289 L35.5177379,7.8191289 L35.5177379,2.79270531 C35.5177379,2.52312628 35.6530732,2.27458258 35.8797931,2.12784581 C36.0091863,2.04421505 36.1589669,2 36.3130503,2 Z M17.1989163,27.6706633 L7.59052232,27.6706633 L7.59052232,43.4145894 L17.1989163,43.4145894 C17.4384423,43.4145894 17.633403,43.2202678 17.633403,42.9814249 L17.633403,42.9814249 L17.6333005,28.1038278 C17.6333005,27.8649849 17.4384423,27.6706633 17.1989163,27.6706633 L17.1989163,27.6706633 Z M11.8362488,31.8716032 C12.5277802,31.8716032 13.0904307,32.4324093 13.0904307,33.1216739 C13.0904307,33.8109385 12.5277802,34.3717445 11.8362488,34.3717445 C11.1447173,34.3717445 10.5820669,33.8109385 10.5820669,33.1216739 C10.5820669,32.4324093 11.1447173,31.8716032 11.8362488,31.8716032 Z" fill="#212121"></path>
                    </g>
                </g>
            </g>
        </g>
    </g>
</svg>