<?xml version="1.0" encoding="UTF-8"?> <svg xmlns="http://www.w3.org/2000/svg" width="48" height="48" viewBox="0 0 48 48"><g fill="none" fill-rule="evenodd"><path d="M0 0h48v48H0z"></path><path fill="#D2222A" d="M39.664 11.908v-.721l-1.489-.488v1.697l1.489-.488zm-9.744 1.067V10.12h-1.384a.671.671 0 0 1-.668-.673V8.322h-6.613v6.45H27.868V13.65c0-.372.299-.674.668-.674h1.384zm.638 7.833h-3.056a.67.67 0 0 1-.668-.674V16.12H22.29v3.34h2.496a.67.67 0 0 1 .668.674.67.67 0 0 1-.668.674H18.566a2.322 2.322 0 0 0-2.278 1.981L13.364 42.7a2.59 2.59 0 0 0 .593 2.06c.486.568 1.19.893 1.934.893h17.341c.744 0 1.45-.325 1.935-.893a2.59 2.59 0 0 0 .593-2.06l-2.924-19.91a2.322 2.322 0 0 0-2.278-1.981zM23.796 4.846h1.53l.463-1.826a.67.67 0 0 1 .647-.507h1.062a.082.082 0 0 0 .082-.083.082.082 0 0 0-.082-.082h-5.874a.082.082 0 0 0-.082.082c0 .046.037.083.082.083h1.062a.67.67 0 0 1 .648.507l.462 1.826zM19.92 9.055v-.733h-3.427l-2.746 8.259a1.052 1.052 0 0 0 1.007-.725l2.108-6.342a.669.669 0 0 1 .634-.46h2.424zm20.62 1.002c.275.09.461.348.461.64v1.7c0 .292-.186.551-.462.641l-2.825.926a.663.663 0 0 1-.599-.096.675.675 0 0 1-.275-.545v-.055h-5.583v.38a.67.67 0 0 1-.668.675h-1.384v1.123a.67.67 0 0 1-.668.674h-.366v3.34h2.388c1.79 0 3.338 1.346 3.6 3.132l2.924 19.91a3.944 3.944 0 0 1-.903 3.137A3.874 3.874 0 0 1 33.232 47h-17.34a3.875 3.875 0 0 1-2.947-1.36 3.944 3.944 0 0 1-.903-3.139l2.924-19.91c.262-1.785 1.81-3.131 3.6-3.131h2.388v-3.34h-.367a.67.67 0 0 1-.668-.674v-5.043h-1.943l-1.956 5.882a2.388 2.388 0 0 1-3.025 1.518l-.323-.11a.679.679 0 0 1-.421-.853l3.127-9.406a.669.669 0 0 1 .633-.46h7.882v-.78h-.616a.67.67 0 0 1-.647-.507l-.463-1.826h-.543a1.426 1.426 0 0 1-1.418-1.43c0-.79.636-1.431 1.418-1.431h5.874c.783 0 1.419.642 1.419 1.43 0 .789-.636 1.43-1.419 1.43h-.543l-.462 1.827a.67.67 0 0 1-.647.507h-.616v.78h3.306a.67.67 0 0 1 .668.675v1.123h1.384a.67.67 0 0 1 .668.674v2.474h5.583v-.746h-3.553a.67.67 0 0 1-.668-.674.67.67 0 0 1 .668-.673h3.553v-.055c0-.216.102-.419.275-.546a.663.663 0 0 1 .6-.095l2.824.926zm-8.924 24.09c0-3.922-3.164-7.113-7.053-7.113-2.366 0-4.463 1.183-5.743 2.992l1.426.83v-.741c0-.373.3-.674.668-.674a.67.67 0 0 1 .669.674v.997c0 .227.183.412.409.412h.21a2.547 2.547 0 0 1 2.36-1.61c.68 0 1.32.266 1.8.75.247.25.437.54.563.86h.21a.411.411 0 0 0 .408-.412v-.997c0-.372.3-.674.668-.674a.67.67 0 0 1 .669.674v.997c0 .97-.783 1.76-1.746 1.76h-.716a.67.67 0 0 1-.661-.575 1.21 1.21 0 0 0-1.194-1.036c-.666 0-1.207.546-1.207 1.218v.187l7.62 4.436c.41-.9.64-1.901.64-2.956zm-7.053 7.112c2.366 0 4.463-1.183 5.743-2.991l-6.95-4.046v1.592c0 .325.125.631.353.862a1.197 1.197 0 0 0 1.408.221.665.665 0 0 1 .9.29c.169.33.04.737-.288.908a2.537 2.537 0 0 1-3.528-1.326h-.21a.411.411 0 0 0-.409.412v.997a.67.67 0 0 1-.668.674.67.67 0 0 1-.668-.674v-.997c0-.97.783-1.76 1.746-1.76h.027v-.6H20.82a.67.67 0 0 1-.668-.675c0-.372.299-.673.668-.673h1.198v-.029l-3.869-2.252c-.41.9-.64 1.9-.64 2.954 0 3.922 3.164 7.113 7.053 7.113zm-7.229-11.4c1.46-2.495 4.154-4.173 7.23-4.173 4.625 0 8.389 3.795 8.389 8.46a8.463 8.463 0 0 1-1.091 4.168.716.716 0 0 1-.032.063c-.01.018-.022.033-.033.05-1.46 2.499-4.156 4.18-7.234 4.18-4.626 0-8.39-3.796-8.39-8.46 0-1.519.4-2.945 1.097-4.178a.682.682 0 0 1 .064-.11zm10.97 3.614a.67.67 0 0 1 .67.673.67.67 0 0 1-.67.674h-.465a.67.67 0 0 1-.668-.674c0-.372.3-.673.668-.673h.466zm-.093 5.379a.67.67 0 0 1-.668-.674v-.3a.67.67 0 0 1 .668-.674.67.67 0 0 1 .669.674v.3a.67.67 0 0 1-.669.674z"></path></g></svg> 