<?xml version="1.0" encoding="UTF-8"?>
<svg width="29px" height="46px" viewBox="0 0 29 46" version="1.1" xmlns="http://www.w3.org/2000/svg" xmlns:xlink="http://www.w3.org/1999/xlink">
    <title>icon/pest-control@2x</title>
    <g id="SGB---1.0-Home-Page-" stroke="none" stroke-width="1" fill="none" fill-rule="evenodd">
        <g id="SGB---1.0.2-Menu-Services-Dropdown" transform="translate(-996.000000, -312.000000)">
            <g id="DROP-DOWN-MENU" transform="translate(130.000000, 85.000000)">
                <g id="CONTENTS" transform="translate(99.000000, 15.000000)">
                    <g id="COMMERCIAL-MAINT." transform="translate(470.000000, 0.000000)">
                        <g id="Group-44" transform="translate(0.000000, 133.000000)">
                            <g id="Group-43" transform="translate(285.000000, 0.000000)">
                                <g id="icon/pest-control" transform="translate(0.000000, 78.000000)">
                                    <rect id="colour" x="0" y="0" width="48" height="48"></rect>
                                    <path d="M27.4984734,1 C28.2805534,1 28.9168732,1.64166406 28.9168732,2.4303125 C28.9168732,3.21887109 28.2805534,3.86053516 27.4984734,3.86053516 L27.4984734,3.86053516 L26.9554365,3.86053516 L26.4930311,5.68696875 C26.4174781,5.98542969 26.1509936,6.19413672 25.8455743,6.19413672 L25.8455743,6.19413672 L25.2296574,6.19413672 L25.2296574,6.97469922 L28.535901,6.97469922 C28.9051126,6.97469922 29.2041169,7.27630469 29.2041169,7.64852734 L29.2041169,7.64852734 L29.2041169,8.77175391 L30.5880368,8.77175391 C30.9571593,8.77175391 31.2562528,9.07335938 31.2562528,9.44558203 L31.2562528,9.44558203 L31.2562528,11.9200586 L36.8385291,11.9200586 L36.8385291,11.1742656 L33.2857583,11.1742656 C32.9165467,11.1742656 32.6175424,10.8726602 32.6175424,10.5004375 C32.6175424,10.1282148 32.9165467,9.82660937 33.2857583,9.82660937 L33.2857583,9.82660937 L36.8385291,9.82660937 L36.8385291,9.77153516 C36.8385291,9.55591016 36.9409888,9.35322266 37.1140122,9.22645313 C37.2871247,9.09959375 37.5096852,9.06410547 37.7133574,9.13076953 L37.7133574,9.13076953 L40.5383073,10.0565195 C40.8136123,10.1467227 41,10.4054727 41,10.6972852 L41,10.6972852 L41,12.3973984 C41,12.6893008 40.8136123,12.9480508 40.5383073,13.0382539 L40.5383073,13.0382539 L37.7133574,13.9640039 C37.6459122,13.9861055 37.5761504,13.9969766 37.5069232,13.9969766 C37.3674888,13.9969766 37.2297472,13.9529531 37.1141013,13.8682305 C36.9409888,13.7414609 36.8386182,13.5387734 36.8386182,13.3231484 L36.8386182,13.3231484 L36.8386182,13.2678047 L31.2563419,13.2678047 L31.2563419,13.6489219 C31.2563419,14.0211445 30.9572484,14.32275 30.5881259,14.32275 L30.5881259,14.32275 L29.2042951,14.32275 L29.2042951,15.4459766 C29.2042951,15.8181992 28.9052017,16.1198047 28.5360792,16.1198047 L28.5360792,16.1198047 L28.1703423,16.1198047 L28.1703423,19.4598359 L30.5581007,19.4598359 C32.3479395,19.4598359 33.8955277,20.8062344 34.1576466,22.5916992 L34.1576466,22.5916992 L37.0816706,42.5011641 C37.2475663,43.6308594 36.9183586,44.7745703 36.178599,45.6393164 C35.4388393,46.5040625 34.3649717,47 33.2324793,47 L33.2324793,47 L15.8912945,47 C14.7588021,47 13.6849344,46.5040625 12.9451748,45.6394961 C12.2053261,44.77475 11.8762074,43.6309492 12.0421032,42.5012539 L12.0421032,42.5012539 L14.9661272,22.5918789 C15.2283352,20.8064141 16.7758343,19.4600156 18.5657622,19.4600156 L18.5657622,19.4600156 L20.9535206,19.4600156 L20.9535206,16.1198945 L20.5868928,16.1198945 C20.2177702,16.1198945 19.9186768,15.8182891 19.9186768,15.4460664 L19.9186768,15.4460664 L19.9186768,10.4025977 L17.9755938,10.4025977 L16.0199484,16.2849375 C15.8169889,16.8949766 15.390578,17.3890273 14.8192979,17.6757188 C14.4835862,17.8441758 14.1215913,17.9292578 13.7574581,17.9292578 C13.5013978,17.9292578 13.2444465,17.8872109 12.9946228,17.8025781 L12.9946228,17.8025781 L12.6718299,17.6935977 C12.5037959,17.6368164 12.3649851,17.5149883 12.2859575,17.3549766 C12.2069298,17.1950547 12.1941891,17.0099766 12.2504975,16.8404414 L12.2504975,16.8404414 L15.3778374,7.43425 C15.4690711,7.15977734 15.7241514,6.97469922 16.0113061,6.97469922 L16.0113061,6.97469922 L23.8933145,6.97469922 L23.8933145,6.19413672 L23.2773085,6.19413672 C22.9718892,6.19413672 22.7054047,5.98533984 22.6298517,5.68696875 L22.6298517,5.68696875 L22.1673572,3.86053516 L21.6243203,3.86053516 C20.8422404,3.86053516 20.2059205,3.21887109 20.2059205,2.4303125 C20.2059205,1.64166406 20.8422404,1 21.6243203,1 L21.6243203,1 Z M26.8338212,16.1198047 L22.2899525,16.1198047 L22.2899525,19.4599258 L24.7856947,19.4599258 C25.1548172,19.4599258 25.4539107,19.7615312 25.4539107,20.1337539 C25.4539107,20.5059766 25.1548172,20.807582 24.7856947,20.807582 L24.7856947,20.807582 L18.5657622,20.807582 C17.4332697,20.807582 16.4540215,21.6595703 16.2881257,22.7892656 L16.2881257,22.7892656 L13.3641017,42.6987305 C13.2551379,43.4404805 13.4712835,44.1914844 13.9569429,44.7591172 C14.4426914,45.3268398 15.1477038,45.6524336 15.8912945,45.6524336 L15.8912945,45.6524336 L33.2324793,45.6524336 C33.97607,45.6524336 34.6810824,45.3268398 35.1668309,44.7591172 C35.6524012,44.1913945 35.8686358,43.4404805 35.7596721,42.6987305 L35.7596721,42.6987305 L32.8356481,22.7892656 C32.6696632,21.6594805 31.6905932,20.807582 30.5580116,20.807582 L30.5580116,20.807582 L27.5020372,20.807582 C27.1328256,20.807582 26.8338212,20.5058867 26.8338212,20.1337539 L26.8338212,20.1337539 L26.8338212,16.1198047 Z M24.5622433,25.686493 C29.1881689,25.686493 32.9516503,29.481493 32.9516503,34.1463602 C32.9516503,35.6607664 32.554641,37.0832625 31.8606764,38.3143016 C31.8512323,38.3355047 31.840719,38.3565281 31.8289584,38.3771922 C31.8189797,38.394532 31.8072191,38.4103445 31.7959931,38.4266961 C30.336253,40.9255203 27.6404915,42.6063172 24.5622433,42.6063172 C19.9362286,42.6063172 16.1727471,38.8112273 16.1727471,34.1463602 C16.1727471,32.6282703 16.5716275,31.2023602 17.2688886,29.9693445 C17.2770854,29.9515555 17.2857276,29.9338562 17.2956172,29.9165164 C17.3072887,29.8962117 17.3197621,29.8768055 17.3331264,29.8582078 C18.7938465,27.3636961 21.4872915,25.686493 24.5622433,25.686493 Z M18.1492409,31.1915789 C17.7394908,32.0923523 17.509179,33.092493 17.509179,34.14645 C17.509179,38.0681297 20.6732263,41.2587508 24.5622433,41.2587508 C26.9284406,41.2587508 29.0247678,40.076407 30.3048023,38.268032 L30.3048023,38.268032 L23.3546433,34.2220984 L23.3546433,35.8141297 C23.3546433,36.1393641 23.480357,36.4454617 23.7083523,36.6759109 C23.9359022,36.904743 24.2394504,37.0314227 24.5618869,37.0314227 C24.7576296,37.0314227 24.9439282,36.9861414 25.1155261,36.8970164 C25.4432192,36.7265828 25.8465544,36.8561375 26.0156576,37.1872117 C26.1847608,37.5179266 26.0559287,37.9244695 25.7278792,38.0948133 C25.3701609,38.2808797 24.967004,38.3790789 24.5618869,38.3790789 C23.8829794,38.3790789 23.2442541,38.1126922 22.7633167,37.6289734 C22.5158095,37.3787586 22.3262144,37.0864969 22.1999661,36.7686297 L22.1999661,36.7686297 L21.9906809,36.7686297 C21.7650912,36.7686297 21.5814654,36.9537078 21.5814654,37.1811922 L21.5814654,37.1811922 L21.5814654,38.1778289 C21.5814654,38.5501414 21.2823719,38.851657 20.9132494,38.851657 C20.5441269,38.851657 20.2450335,38.5501414 20.2450335,38.1778289 L20.2450335,38.1778289 L20.2450335,37.1811922 C20.2450335,36.2106102 21.0280935,35.4209734 21.9906809,35.4209734 L21.9906809,35.4209734 L22.0182114,35.4209734 L22.0182114,34.8202781 L20.8198774,34.8202781 C20.4507549,34.8202781 20.1516614,34.5187625 20.1516614,34.14645 C20.1516614,33.7742273 20.4507549,33.4726219 20.8198774,33.4726219 L20.8198774,33.4726219 L22.0182114,33.4726219 L22.0182114,33.4440516 Z M28.210364,37.2044707 C28.5794865,37.2044707 28.8785799,37.5060762 28.8785799,37.8782988 L28.8785799,37.8782988 L28.8785799,38.177748 C28.8785799,38.5500605 28.5794865,38.8515762 28.210364,38.8515762 C27.8411524,38.8515762 27.542148,38.5500605 27.542148,38.177748 L27.542148,38.177748 L27.542148,37.8782988 C27.542148,37.506166 27.8411524,37.2044707 28.210364,37.2044707 Z M24.5622433,27.0341492 C22.1956895,27.0341492 20.0992733,28.2167625 18.8192387,30.0255867 L18.8192387,30.0255867 L20.2451226,30.8555633 L20.2451226,30.1147117 C20.2451226,29.7424891 20.544216,29.4408836 20.9133385,29.4408836 C21.282461,29.4408836 21.5815545,29.7424891 21.5815545,30.1147117 L21.5815545,30.1147117 L21.5815545,31.111618 C21.5815545,31.3391023 21.7651803,31.5241805 21.99077,31.5241805 L21.99077,31.5241805 L22.2016589,31.5241805 C22.5779982,30.5810008 23.4938105,29.9131922 24.5618869,29.9131922 C25.2413289,29.9131922 25.8802325,30.180118 26.3609916,30.6647352 C26.6076078,30.9136023 26.7976485,31.2046062 26.924164,31.5240906 L26.924164,31.5240906 L27.133182,31.5240906 C27.3586826,31.5240906 27.5421302,31.3391023 27.5421302,31.1117078 L27.5421302,31.1117078 L27.5421302,30.1152508 C27.5421302,29.7429383 27.8412236,29.4414227 28.2103461,29.4414227 C28.5794686,29.4414227 28.8785621,29.7429383 28.8785621,30.1152508 L28.8785621,30.1152508 L28.8785621,31.1117078 C28.8785621,32.0821102 28.0955912,32.8717469 27.133182,32.8717469 L27.133182,32.8717469 L26.4168544,32.8717469 C26.0858648,32.8717469 25.8048577,32.6274617 25.7559443,32.2972859 C25.7177223,32.0382664 25.6000272,31.8032352 25.415956,31.6177078 C25.1876934,31.3873484 24.8844125,31.2606688 24.5618869,31.2606688 C23.8961656,31.2606688 23.3546433,31.8070984 23.3546433,32.47895 L23.3546433,32.47895 L23.3546433,32.6659148 L30.9748893,37.10195 C31.3848175,36.2011766 31.6152184,35.2006766 31.6152184,34.14645 C31.6152184,30.2247703 28.4512603,27.0341492 24.5622433,27.0341492 Z M28.3038964,33.4726219 C28.6730189,33.4726219 28.9721124,33.7742273 28.9721124,34.14645 C28.9721124,34.5187625 28.6730189,34.8202781 28.3038964,34.8202781 L28.3038964,34.8202781 L27.8382835,34.8202781 C27.469161,34.8202781 27.1700675,34.5187625 27.1700675,34.14645 C27.1700675,33.7742273 27.469161,33.4726219 27.8382835,33.4726219 L27.8382835,33.4726219 Z M19.9187659,8.32226562 L16.491887,8.32226562 L13.7464103,16.5807225 C13.9083859,16.5816914 14.0730343,16.5448555 14.2238729,16.4691172 C14.4756567,16.3427969 14.6634699,16.1251953 14.7528327,15.8563828 L14.7528327,15.8563828 L16.8613659,9.51449219 C16.9526888,9.23992969 17.20768,9.05485156 17.4949238,9.05485156 L17.4949238,9.05485156 L19.9187659,9.05476172 L19.9187659,8.32226562 Z M27.8678632,8.32235547 L21.2551978,8.32235547 L21.2551978,14.7721484 L27.8678632,14.7721484 L27.8678632,13.6489219 C27.8678632,13.2766992 28.1669566,12.9750938 28.5360792,12.9750938 L28.5360792,12.9750938 L29.919999,12.9750938 L29.919999,10.1194102 L28.5360792,10.1194102 C28.1670457,10.1194102 27.8678632,9.81780469 27.8678632,9.44558203 L27.8678632,9.44558203 L27.8678632,8.32235547 Z M38.1750501,10.699082 L38.1750501,12.3956914 L39.663568,11.9078398 L39.663568,11.1869336 L38.1750501,10.699082 Z M27.4984734,2.34756641 L21.6243203,2.34756641 C21.5791489,2.34756641 21.5423525,2.38467187 21.5423525,2.43022266 C21.5423525,2.47577344 21.5791489,2.51278906 21.6243203,2.51278906 L21.6243203,2.51278906 L22.6864274,2.51278906 C22.9918466,2.51278906 23.2583311,2.72167578 23.3338841,3.01995703 L23.3338841,3.01995703 L23.7962896,4.84639062 L25.3265042,4.84639062 L25.7889096,3.01995703 C25.8644626,2.72158594 26.1309471,2.51278906 26.4363663,2.51278906 L26.4363663,2.51278906 L27.4984734,2.51278906 C27.5436448,2.51278906 27.5804412,2.47577344 27.5804412,2.43022266 C27.5804412,2.38467187 27.5436448,2.34756641 27.4984734,2.34756641 L27.4984734,2.34756641 Z" fill="#212121"></path>
                                </g>
                            </g>
                        </g>
                    </g>
                </g>
            </g>
        </g>
    </g>
</svg>