<?xml version="1.0" encoding="UTF-8"?>
<svg width="46px" height="31px" viewBox="0 0 46 31" version="1.1" xmlns="http://www.w3.org/2000/svg" xmlns:xlink="http://www.w3.org/1999/xlink">
    <title>icon/plumbing@2x</title>
    <g id="SGB---1.0-Home-Page-" stroke="none" stroke-width="1" fill="none" fill-rule="evenodd">
        <g id="SGB---1.0.2-Menu-Services-Dropdown" transform="translate(-700.000000, -397.000000)">
            <g id="DROP-DOWN-MENU" transform="translate(130.000000, 85.000000)">
                <g id="CONTENTS" transform="translate(99.000000, 15.000000)">
                    <g id="COMMERCIAL-MAINT." transform="translate(470.000000, 0.000000)">
                        <g id="Group-44" transform="translate(0.000000, 133.000000)">
                            <g id="icon/plumbing" transform="translate(0.000000, 156.000000)">
                                <rect id="colour" x="0" y="0" width="48" height="48"></rect>
                                <path d="M45.5625,26.0238594 L38.366375,26.0238594 L38.366375,24.5899958 C38.366375,24.5872023 38.3678125,24.5856704 38.3678125,24.5827868 L38.366375,23.8611692 C38.366375,23.4632343 38.688375,23.1402725 39.085125,23.1402725 L44.84375,23.1402725 C45.2405,23.1402725 45.5625,23.4632343 45.5625,23.8611692 L45.5625,26.0238594 Z M38.366375,33.2328264 L45.5625,33.2328264 L45.5625,27.4656528 L38.366375,27.4656528 L38.366375,33.2328264 Z M45.5625,36.8373099 C45.5625,37.2352449 45.2405,37.5582066 44.84375,37.5582066 L39.085125,37.5582066 C38.688375,37.5582066 38.366375,37.2352449 38.366375,36.8373099 L38.366375,36.1229013 C38.366375,36.1200177 38.3678125,36.1185759 38.3678125,36.1156923 C38.3678125,36.1128087 38.366375,36.1113669 38.366375,36.1084833 L38.366375,34.6746198 L45.5625,34.6746198 L45.5625,36.8373099 Z M35.491375,35.3947956 L36.928875,35.3947956 L36.928875,25.3036835 L35.491375,25.3036835 L35.491375,35.3947956 Z M33.33225,33.9530022 L34.053875,33.9530022 L34.053875,26.745477 L33.33225,26.745477 L33.33225,33.9530022 Z M16.08225,36.1164132 L31.89475,36.1164132 L31.89475,24.582066 L16.08225,24.582066 L16.08225,36.1164132 Z M18.94575,21.2190828 L20.7534062,18.8163341 L27.222875,18.8163341 L29.0104063,21.2169201 L29.0104063,23.1402725 L18.94575,23.1402725 L18.94575,21.2190828 Z M21.84375,17.3745407 L26.15625,17.3745407 L26.15625,16.6522022 L21.84375,16.6522022 L21.84375,17.3745407 Z M20.0461562,15.2104088 C19.8485,15.2104088 19.6867812,15.0482071 19.6867812,14.8499605 C19.6867812,14.6517139 19.8485,14.4895121 20.0461562,14.4895121 L27.21425,14.4895121 C27.3738125,14.4895121 27.5290625,14.4361658 27.6548437,14.3381238 L33.81525,9.53839356 C33.8346562,9.52541742 33.8540625,9.51244128 33.8677187,9.50162783 L33.9338437,9.46990838 C33.9338437,9.46990838 34.0042812,9.45116506 34.005,9.45116506 L34.0790312,9.4439561 C34.0855,9.4432352 34.0934062,9.4425143 34.1013125,9.4417934 L45.203125,9.4417934 C45.4007812,9.4417934 45.5625,9.60399516 45.5625,9.80224176 C45.5625,10.0004883 45.4007812,10.1626901 45.203125,10.1626901 L34.4319375,10.1626901 C34.272375,10.1626901 34.1170352,10.2160365 33.9913437,10.3140784 L27.8453125,15.1029952 C27.826625,15.1145296 27.8079375,15.1267848 27.7914062,15.13904 C27.7669687,15.1577834 27.7367812,15.174364 27.6879062,15.1902237 C27.6433437,15.2031999 27.608125,15.2096879 27.5815312,15.2104088 L20.0461562,15.2104088 Z M23.2819688,13.0477187 L24.71875,13.0477187 L24.71875,12.326822 L23.2819688,12.326822 L23.2819688,13.0477187 Z M13.923125,33.9530022 L14.64475,33.9530022 L14.64475,26.745477 L13.923125,26.745477 L13.923125,33.9530022 Z M11.0617812,35.3947956 L12.485625,35.3947956 L12.485625,25.3036835 L11.0617812,25.3036835 L11.0617812,35.3947956 Z M9.62428125,36.0421608 C9.62140625,36.0666713 9.6091875,36.0882982 9.6091875,36.1149714 L8.9048125,36.1149714 L8.9048125,24.5827868 L9.6091875,24.5827868 C9.6091875,24.6087391 9.62140625,24.630366 9.62428125,24.6563183 L9.62428125,36.0421608 Z M6.75,36.1149714 L7.4673125,36.1149714 L7.4673125,24.5826967 L6.75,24.5826967 L6.75,36.1149714 Z M4.5951875,36.1149714 L5.3125,36.1149714 L5.3125,24.5826967 L4.5951875,24.5826967 L4.5951875,36.1149714 Z M2.4375,36.1149714 L3.1576875,36.1149714 L3.1576875,24.5826967 L2.4375,24.5826967 L2.4375,36.1149714 Z M39.085125,21.6984791 C37.8963125,21.6984791 36.928875,22.6688061 36.928875,23.8611692 L34.772625,23.8618901 C34.3751563,23.8618901 34.053875,24.184131 34.053875,24.5827868 L34.053875,25.3036835 L33.33225,25.3036835 L33.33225,23.8611692 C33.33225,23.4625134 33.0109687,23.1402725 32.6135,23.1402725 L30.4471875,23.1402725 L30.4471875,20.9775824 C30.4471875,20.9487466 30.4335313,20.9242361 30.431375,20.8961211 C30.425625,20.847821 30.4177188,20.8009627 30.402625,20.7541045 C30.3868125,20.7058044 30.3638125,20.6625506 30.3386563,20.6192968 C30.325,20.5955072 30.3214063,20.568834 30.3041563,20.5457653 L28.1579687,17.6636203 C28.1471875,17.6492024 28.1320937,17.6434352 28.1213125,17.630459 C28.08825,17.5915306 28.0501562,17.561253 28.010625,17.5309753 C27.9746875,17.5035812 27.9401875,17.4769081 27.901375,17.4567229 C27.8618438,17.4365378 27.820875,17.4257244 27.77775,17.4127482 C27.7295937,17.3983303 27.6821563,17.386796 27.631125,17.3831915 C27.6180977,17.3824706 27.6074063,17.3759825 27.59375,17.3752616 L27.59375,16.6507604 C27.7554687,16.6500395 27.9193438,16.6248081 28.117,16.5664155 C28.1328125,16.5613692 28.1838437,16.5455095 28.1989375,16.5397423 C28.3577813,16.4806288 28.505125,16.4020511 28.6079062,16.325636 C28.6352187,16.3097763 28.6618125,16.291033 28.6848125,16.2737315 L34.67775,11.6044835 L45.203125,11.6044835 C46.1942812,11.6044835 47,10.7963583 47,9.80224176 C47,8.8081252 46.1942812,8 45.203125,8 L34.0625,8 C34.0387812,8 34.0057187,8.00216269 33.97625,8.00504628 C33.9223438,8.00792986 33.8677188,8.01441793 33.8051875,8.02306869 C33.7599063,8.02955676 33.7124687,8.03676573 33.6535313,8.04902098 C33.6003438,8.06199712 33.5485937,8.07857774 33.4724062,8.10453002 C33.4177812,8.12255244 33.3645937,8.14273755 33.3194023,8.16364355 C33.2675625,8.18671225 33.2158125,8.21554811 33.1662187,8.24438398 C33.1266875,8.26745268 33.0885937,8.29052137 33.041875,8.32296172 C33.0145625,8.33882145 32.9822188,8.36116925 32.9606562,8.37774987 L26.9677187,13.0469978 L26.15625,13.0469978 L26.15625,11.6945956 C26.15625,11.6787359 26.1483438,11.6657597 26.1469062,11.6491791 C26.1483438,11.6347612 26.15625,11.621785 26.15625,11.6059253 C26.15625,11.2072694 25.8349687,10.8850286 25.4375,10.8850286 L22.5632187,10.8850286 C22.16575,10.8850286 21.8444687,11.2072694 21.8444687,11.6059253 L21.8444687,13.0477187 L20.0461563,13.0477187 C19.055,13.0477187 18.2492813,13.8558439 18.2492813,14.8499605 C18.2492813,15.844077 19.055,16.6522022 20.0461563,16.6522022 L20.40625,16.6522022 L20.40625,17.3745407 L20.39475,17.3745407 C20.3789375,17.3745407 20.3652812,17.3831915 20.3494687,17.3839124 C20.2977187,17.3875169 20.2488437,17.3997721 20.1985312,17.41419 C20.1568438,17.4271662 20.1173125,17.4365378 20.0792188,17.456002 C20.03825,17.4761872 20.0044688,17.5035812 19.9678125,17.5309753 C19.9275625,17.561253 19.8909063,17.5915306 19.8578438,17.6297382 C19.8470625,17.6419934 19.8319688,17.6477606 19.8219062,17.6614576 L17.6534375,20.5436026 C17.6369062,20.5659504 17.6325937,20.5933445 17.6175,20.617855 C17.5923438,20.6618297 17.5700625,20.7043626 17.5535312,20.7533836 C17.5377187,20.8002418 17.5305313,20.8463792 17.5247813,20.8946793 C17.5211875,20.9235152 17.50825,20.9487466 17.50825,20.9783033 L17.50825,23.1409934 L15.3642187,23.1409934 C14.96675,23.1409934 14.6454687,23.4632343 14.6454687,23.8618901 L14.6454687,25.3044946 L13.923125,25.3044946 L13.923125,24.5835979 C13.923125,24.1848519 13.6018438,23.8627012 13.204375,23.8627012 L11.0617813,23.8627012 C11.0617813,23.4639552 10.7405,23.1417143 10.3430313,23.1417143 L8.9048125,23.1417143 C8.9048125,22.7430585 8.58353125,22.4208176 8.1860625,22.4208176 C7.78859375,22.4208176 7.4673125,22.7430585 7.4673125,23.1417143 L6.75,23.1417143 C6.75,22.7430585 6.42871875,22.4208176 6.03125,22.4208176 C5.63378125,22.4208176 5.3125,22.7430585 5.3125,23.1417143 L4.5951875,23.1417143 C4.5951875,22.7430585 4.27390625,22.4208176 3.8764375,22.4208176 C3.47896875,22.4208176 3.1576875,22.7430585 3.1576875,23.1417143 L1.71875,23.1417143 C1.32128125,23.1417143 1,23.4639552 1,23.8627012 L1,36.836589 C1,37.2352449 1.32128125,37.5574857 1.71875,37.5574857 L3.1576875,37.5574857 C3.1576875,37.9561416 3.47896875,38.2783824 3.8764375,38.2783824 C4.27390625,38.2783824 4.5951875,37.9561416 4.5951875,37.5574857 L5.3125,37.5567648 C5.3125,37.9561416 5.63378125,38.2783824 6.03125,38.2783824 C6.42871875,38.2783824 6.75,37.9561416 6.75,37.5574857 L7.4673125,37.5567648 C7.4673125,37.9561416 7.78859375,38.2783824 8.1860625,38.2783824 C8.58353125,38.2783824 8.9048125,37.9561416 8.9048125,37.5574857 L10.3430313,37.5567648 C10.7405,37.5567648 11.0610625,37.2352449 11.0617813,36.836589 L13.2050938,36.836589 C13.6025625,36.836589 13.9238438,36.5143482 13.9238438,36.1156923 C13.9238438,36.1143406 13.923125,36.1135296 13.923125,36.1120878 L13.923125,35.3947956 L14.64475,35.3947956 L14.64475,36.8373099 C14.64475,37.2359658 14.9660312,37.5582066 15.3635,37.5582066 L32.6135,37.5582066 C33.0109687,37.5582066 33.33225,37.2359658 33.33225,36.8373099 L33.33225,35.3947956 L34.053875,35.3947956 L34.053875,36.1120878 C34.053875,36.1135296 34.0531562,36.1143406 34.0531562,36.1156923 C34.0531562,36.5143482 34.3744375,36.836589 34.7719063,36.836589 L36.928875,36.836589 C36.928875,38.029673 37.8963125,39 39.085125,39 L44.84375,39 C46.0325625,39 47,38.029673 47,36.8373099 L47,23.8611692 C47,22.6688061 46.0325625,21.6984791 44.84375,21.6984791 L39.085125,21.6984791 Z" fill="#212121"></path>
                            </g>
                        </g>
                    </g>
                </g>
            </g>
        </g>
    </g>
</svg>