<?xml version="1.0" encoding="UTF-8"?> <svg xmlns="http://www.w3.org/2000/svg" width="48" height="48" viewBox="0 0 48 48"><g fill="none" fill-rule="evenodd"><path d="M0 0h48v48H0z"></path><path fill="#D2222A" d="M45.563 26.024h-7.197V24.59l.002-.007-.002-.722a.72.72 0 0 1 .72-.72h5.758a.72.72 0 0 1 .718.72v2.163zm-7.197 7.209h7.197v-5.767h-7.197v5.767zm7.197 3.604a.72.72 0 0 1-.72.721h-5.758a.72.72 0 0 1-.719-.72v-.715l.002-.007-.002-.008v-1.433h7.197v2.162zM35.49 35.395h1.438V25.304H35.49v10.09zm-2.159-1.442h.722v-7.208h-.722v7.208zm-17.25 2.163h15.813V24.582H16.082v11.534zm2.864-14.897l1.807-2.403h6.47l1.787 2.4v1.924H18.946v-1.92zm2.898-3.844h4.312v-.723h-4.312v.723zm-1.798-2.165a.361.361 0 0 1 0-.72h7.168c.16 0 .315-.054.44-.152l6.161-4.8.053-.036.066-.032.071-.019.074-.007a1.2 1.2 0 0 1 .022-.002h11.102a.361.361 0 0 1 0 .72H34.432a.717.717 0 0 0-.44.152l-6.147 4.789a.78.78 0 0 0-.054.036.443.443 0 0 1-.21.071h-7.535zm3.236-2.162h1.437v-.721h-1.437v.72zm-9.359 20.905h.722v-7.208h-.722v7.208zm-2.861 1.442h1.424V25.304h-1.424v10.09zm-1.438.647c-.003.025-.015.046-.015.073h-.704V24.583h.704c0 .026.012.047.015.073v11.386zm-2.874.073h.717V24.583H6.75v11.532zm-2.155 0h.718V24.583h-.718v11.532zm-2.157 0h.72V24.583h-.72v11.532zm36.647-14.417c-1.189 0-2.156.97-2.156 2.163h-2.156a.72.72 0 0 0-.72.722v.72h-.72v-1.442a.72.72 0 0 0-.72-.72h-2.166v-2.163c0-.03-.013-.054-.016-.082a.743.743 0 0 0-.028-.142.702.702 0 0 0-.064-.135c-.014-.023-.018-.05-.035-.073l-2.146-2.882c-.01-.015-.026-.02-.037-.034a.688.688 0 0 0-.11-.099c-.036-.027-.07-.054-.11-.074-.04-.02-.08-.031-.123-.044a.67.67 0 0 0-.147-.03c-.013 0-.024-.007-.037-.008v-.724c.161-.001.325-.026.523-.085.016-.005.067-.02.082-.026.159-.06.306-.138.409-.214a.796.796 0 0 0 .077-.052l5.993-4.67h10.525c.991 0 1.797-.808 1.797-1.802S46.194 8 45.203 8h-11.14a2.039 2.039 0 0 0-.409.049 2.09 2.09 0 0 0-.488.195c-.04.023-.077.047-.124.079a.839.839 0 0 0-.081.055l-5.993 4.669h-.812v-1.352c0-.016-.008-.03-.01-.046.002-.014.01-.027.01-.043a.72.72 0 0 0-.718-.721h-2.875a.72.72 0 0 0-.719.72v1.443h-1.798c-.991 0-1.797.808-1.797 1.802s.806 1.802 1.797 1.802h.36v.723h-.011c-.016 0-.03.008-.046.009a.728.728 0 0 0-.15.03c-.042.013-.082.023-.12.042-.04.02-.075.048-.111.075a.682.682 0 0 0-.11.099c-.01.012-.026.018-.036.031l-2.169 2.883c-.016.022-.02.05-.035.074a.754.754 0 0 0-.064.135.685.685 0 0 0-.03.142c-.003.029-.016.054-.016.083v2.163h-2.144a.72.72 0 0 0-.719.72v1.443h-.722v-.72a.72.72 0 0 0-.719-.721h-2.142a.72.72 0 0 0-.719-.721H8.905a.72.72 0 1 0-1.438 0H6.75a.72.72 0 1 0-1.438 0h-.717a.72.72 0 1 0-1.437 0h-1.44a.72.72 0 0 0-.718.72v12.975c0 .398.321.72.719.72h1.439a.72.72 0 1 0 1.437 0h.718a.72.72 0 1 0 1.437 0h.717a.72.72 0 1 0 1.438 0h1.438a.719.719 0 0 0 .719-.72h2.143a.72.72 0 0 0 .719-.721v-.721h.72v1.442c0 .399.322.721.72.721h17.25a.72.72 0 0 0 .718-.72v-1.443h.722v.721c0 .398.32.72.718.72h2.157c0 1.194.967 2.164 2.156 2.164h5.759C46.033 39 47 38.03 47 36.837V23.861a2.162 2.162 0 0 0-2.156-2.163h-5.759z"></path></g></svg> 