<?xml version="1.0" encoding="UTF-8"?> <svg xmlns="http://www.w3.org/2000/svg" width="42" height="43" viewBox="0 0 42 43"><path fill="#D2222A" fill-rule="evenodd" d="M16.668 18.873c.134 0 .264.036.379.103a7.689 7.689 0 0 0 1.916.799c.275.07.49.293.547.568l.471 2.344h2.041l.473-2.345a.744.744 0 0 1 .544-.566 7.703 7.703 0 0 0 1.916-.798.746.746 0 0 1 .778.01l2.016 1.327.142-.139c.196-.191.389-.383.58-.573.198-.197.394-.392.593-.585l.147-.143-1.333-2.008a.747.747 0 0 1-.038-.791c.356-.614.636-1.28.811-1.927a.739.739 0 0 1 .557-.533l2.4-.52v-2.038l-2.403-.504a.737.737 0 0 1-.553-.533 8.224 8.224 0 0 0-.813-1.944.735.735 0 0 1 .038-.772l1.35-2.026-.148-.143a79.762 79.762 0 0 0-.585-.562c-.2-.192-.402-.384-.603-.58l-.142-.138-2.018 1.312a.737.737 0 0 1-.777.023 7.769 7.769 0 0 0-1.913-.812.747.747 0 0 1-.547-.568l-.472-2.327h-2.04l-.473 2.328a.744.744 0 0 1-.544.566 7.778 7.778 0 0 0-1.916.814.74.74 0 0 1-.775-.023l-2.02-1.313-.14.137c-.204.199-.407.392-.609.585-.195.186-.389.371-.58.558l-.148.143 1.35 2.024c.158.235.172.532.035.778-.348.6-.63 1.273-.81 1.94a.74.74 0 0 1-.556.533l-2.401.504v2.037l2.403.521c.27.06.483.264.554.532.176.65.456 1.316.813 1.93a.745.745 0 0 1-.036.785l-1.336 2.012.147.143c.197.192.392.385.588.58.193.192.387.386.585.578l.143.14 2.018-1.33a.737.737 0 0 1 .394-.113zm2.697 5.296a.743.743 0 0 1-.73-.602l-.506-2.565-.134-.047a9.22 9.22 0 0 1-1.083-.451l-.126-.062-2.218 1.435a.737.737 0 0 1-.925-.105c-.372-.373-.76-.745-1.152-1.122-.398-.382-.801-.77-1.196-1.165a.746.746 0 0 1-.091-.925l1.482-2.217-.062-.128c-.166-.34-.315-.699-.452-1.099l-.045-.131-2.621-.57a.745.745 0 0 1-.593-.719v-3.225a.743.743 0 0 1 .59-.73l2.624-.572.045-.131c.137-.4.286-.759.452-1.099l.062-.128-1.484-2.204a.742.742 0 0 1 .093-.937c.394-.396.797-.782 1.194-1.163.393-.378.782-.751 1.153-1.124a.738.738 0 0 1 .927-.105l2.2 1.451.128-.063a9.32 9.32 0 0 1 1.082-.451l.134-.047.522-2.578a.736.736 0 0 1 .66-.59l3.344.001c.354 0 .66.248.73.59l.522 2.577.133.047c.397.138.751.286 1.083.45l.127.064 2.203-1.452a.737.737 0 0 1 .923.106c.372.372.759.744 1.15 1.12.4.382.803.77 1.198 1.166.252.25.29.645.094.939L29.317 7.81l.063.129c.167.341.314.701.452 1.099l.045.131 2.621.57a.744.744 0 0 1 .593.731V13.7a.745.745 0 0 1-.59.715l-2.624.571-.045.131a9.731 9.731 0 0 1-.452 1.1l-.062.127 1.483 2.219a.744.744 0 0 1-.093.924c-.395.396-.798.783-1.197 1.166a71.53 71.53 0 0 0-1.15 1.119.736.736 0 0 1-.927.105l-2.216-1.434-.126.062c-.336.166-.7.318-1.083.451l-.134.047-.506 2.563a.743.743 0 0 1-.728.604h-3.276zM8.265 43a.743.743 0 0 1-.51-1.278l2.797-2.736c.812-.795 1.905-1.165 3.44-1.165h11.719c1.729 0 3.28-.832 4.743-2.542 3.8-4.446 9.728-11.56 9.775-11.616l.078-.095-.006-.028c.137-.212.217-.493.217-.791 0-.851-.581-1.36-1.143-1.36a.999.999 0 0 0-.72.31l-.057.041-2.825 2.826c-1.297 1.295-3.059 3.06-3.39 3.42a.74.74 0 0 1-1.056.054.743.743 0 0 1-.045-1.048c.39-.427 1.575-1.61 2.83-2.863l.62-.619c1.25-1.249 2.41-2.399 2.726-2.711l.118-.102c.488-.502 1.144-.79 1.799-.79 1.448 0 2.625 1.275 2.625 2.842 0 .65-.202 1.267-.584 1.783-.083.107-6.035 7.256-9.84 11.707-1.739 2.034-3.712 3.065-5.865 3.065H13.992c-1.091 0-1.762.113-2.396.734L8.801 42.77a.757.757 0 0 1-.535.229zM21.003 9.838a2.242 2.242 0 0 0-2.239 2.24 2.242 2.242 0 0 0 2.239 2.239 2.241 2.241 0 0 0 2.239-2.24A2.241 2.241 0 0 0 21 9.837zm0 5.961a3.726 3.726 0 0 1-3.72-3.722 3.726 3.726 0 0 1 3.72-3.722c2.051 0 3.72 1.67 3.72 3.722a3.726 3.726 0 0 1-3.72 3.722zM.745 36.15a.747.747 0 0 1-.476-1.32l7.21-5.897c1.795-1.47 4.06-1.659 5.834-1.659h15.223c.23.002.451.115.589.301.951 1.246.67 2.834.09 3.906-.68 1.256-1.747 2.006-2.856 2.006-.051 0-.103-.002-.155-.004l-.261-.016v.03h-9.187a.737.737 0 0 1-.755-.752.744.744 0 0 1 .74-.73h9.449c-.008.001.016.005.039.01l.026.006.066.002c.448 0 1.163-.465 1.584-1.244.328-.606.394-1.27.185-1.867l-.057-.165h-14.72c-2.27 0-3.78.407-4.897 1.322l-7.195 5.9a.745.745 0 0 1-.476.172z"></path></svg> 