<?xml version="1.0" encoding="UTF-8"?> <svg xmlns="http://www.w3.org/2000/svg" width="48" height="48" viewBox="0 0 48 48"><g fill="none" fill-rule="evenodd"><path d="M0 0h48v48H0z"></path><path fill="#D2222A" d="M10.167 44.477V41.79a.09.09 0 0 0-.09-.09H8.822a.09.09 0 0 0-.09.09l.001 2.687c0 .05.04.09.09.09h1.254c.05 0 .09-.04.09-.09zm2.866-1.344a.717.717 0 0 1 0 1.434H11.69a.091.091 0 0 0-.092.084A1.435 1.435 0 0 1 10.167 46H8.733A1.435 1.435 0 0 1 7.3 44.567V41.7c0-.014.004-.026.004-.04a2.144 2.144 0 0 1-1.687-1.589l-1.181-4.81-.003-.022V17.263a.09.09 0 0 0-.058-.083 2.145 2.145 0 0 1 .775-4.147h2.237a.09.09 0 0 0 .087-.068l.293-1.17c.179-.71.705-1.279 1.394-1.514a.09.09 0 0 1 .114.06l.352 1.208a.088.088 0 0 1-.05.106.72.72 0 0 0-.42.488l-.195.779a.09.09 0 0 0 .087.111h1.118a.717.717 0 0 1 0 1.434H5.15c-.618 0-1.053.78-.371 1.41.017.014.04.023.062.023h5.326a.717.717 0 0 1 0 1.433h-4.21a.09.09 0 0 0-.09.09V35.15l.002.022 1.138 4.55c.08.32.366.544.695.544h2.465c.791 0 1.432.642 1.433 1.433v1.344c0 .05.04.09.09.09h1.343zm27.234 1.344V41.79a.09.09 0 0 0-.09-.09h-1.254a.09.09 0 0 0-.09.09v2.687c0 .05.04.09.09.09h1.254c.05 0 .09-.04.09-.09zm3.583-31.444a2.152 2.152 0 0 1 2.15 2.15 2.146 2.146 0 0 1-1.377 1.997.09.09 0 0 0-.058.083l-.02 18.15-.003.022-1.16 4.636a2.144 2.144 0 0 1-1.686 1.59c0 .013.004.025.004.039v2.867c0 .79-.642 1.432-1.433 1.433h-1.434a1.435 1.435 0 0 1-1.43-1.35.091.091 0 0 0-.092-.083h-1.344a.717.717 0 0 1 0-1.434h1.343c.05 0 .09-.04.09-.09V41.7c0-.791.642-1.432 1.433-1.433h2.465a.716.716 0 0 0 .695-.543l1.138-4.551.002-.022V17.423a.09.09 0 0 0-.09-.09h-4.21a.717.717 0 0 1 0-1.433h5.017c.618 0 1.053-.781.371-1.41a.092.092 0 0 0-.062-.023h-5.326a.717.717 0 0 1 0-1.434h1.117a.09.09 0 0 0 .087-.111l-.194-.779a.718.718 0 0 0-.421-.488.088.088 0 0 1-.05-.107l.352-1.207a.09.09 0 0 1 .114-.06c.69.235 1.217.804 1.395 1.515l.293 1.17a.09.09 0 0 0 .087.067h2.237zm-8.6 16.433v-19.21a.09.09 0 0 0-.09-.09H13.84a.09.09 0 0 0-.09.09v19.221l1.34 10.711a.09.09 0 0 0 .088.079h2.872c.791 0 1.432.642 1.433 1.433v1.344c0 .05.04.09.09.09h9.854c.05 0 .09-.04.09-.09V41.7c0-.791.642-1.432 1.433-1.433h2.872a.09.09 0 0 0 .088-.079l1.34-10.71v-.012zm-2.867 15.011V41.79a.09.09 0 0 0-.09-.09H31.04a.09.09 0 0 0-.09.09v2.687c0 .05.04.09.09.09h1.254c.05 0 .09-.04.09-.09zm-14.333 0V41.79a.09.09 0 0 0-.09-.09h-1.254a.09.09 0 0 0-.09.09v2.687c0 .05.04.09.09.09h1.254c.05 0 .09-.04.09-.09zM12.317 8.733h24.366c.618 0 1.053-.78.371-1.41a.092.092 0 0 0-.061-.023H12.317a.717.717 0 0 0 0 1.433zm4.09-2.996a.09.09 0 0 0 .08.13h16.025a.09.09 0 0 0 .08-.13l-.454-.908a.714.714 0 0 0-.64-.396H17.502a.714.714 0 0 0-.641.396l-.454.908zm20.27 23.874l-1.354 10.833c-.09.717-.7 1.255-1.422 1.256h-.084v2.867c-.001.79-.642 1.432-1.434 1.433H30.95a1.435 1.435 0 0 1-1.43-1.35.091.091 0 0 0-.093-.083h-9.854a.091.091 0 0 0-.092.084A1.435 1.435 0 0 1 18.05 46h-1.433a1.435 1.435 0 0 1-1.434-1.433V41.7H15.1a1.435 1.435 0 0 1-1.422-1.256l-1.36-10.922V10.254a.09.09 0 0 0-.088-.09c-1.821-.072-3.06-2.411-.972-4.274a.107.107 0 0 1 .06-.023h3.368a.09.09 0 0 0 .08-.05l.814-1.629A2.139 2.139 0 0 1 17.503 3h13.994a2.139 2.139 0 0 1 1.924 1.188l.814 1.63a.09.09 0 0 0 .08.049h3.367c.02 0 .047.01.061.023 2.121 1.892.81 4.277-1.06 4.277L36.678 29.6v.011zM25.42 20.917h-1.637A3.587 3.587 0 0 0 20.2 24.5v1.433a.717.717 0 0 1-1.433 0V24.5a5.022 5.022 0 0 1 5.016-5.017h1.637a.09.09 0 0 0 .064-.153l-1.427-1.427a.09.09 0 0 1 0-.126l.886-.887a.09.09 0 0 1 .127 0l3.247 3.247a.09.09 0 0 1 0 .126L25.07 23.51a.09.09 0 0 1-.127 0l-.886-.887a.09.09 0 0 1 0-.126l1.427-1.427a.09.09 0 0 0-.064-.153zm4.813 1.433c.396 0 .717.32.717.717V24.5a5.023 5.023 0 0 1-5.017 5.017h-1.637a.09.09 0 0 0-.063.153l1.427 1.427a.09.09 0 0 1 0 .126l-.887.887a.09.09 0 0 1-.126 0L21.4 28.863a.09.09 0 0 1 0-.126l3.247-3.247a.09.09 0 0 1 .126 0l.887.887a.09.09 0 0 1 0 .126l-1.427 1.427a.09.09 0 0 0 .063.153h1.637a3.587 3.587 0 0 0 3.584-3.583v-1.433c0-.396.32-.717.716-.717z"></path></g></svg> 