<?xml version="1.0" encoding="UTF-8"?>
<svg width="43px" height="43px" viewBox="0 0 43 43" version="1.1" xmlns="http://www.w3.org/2000/svg" xmlns:xlink="http://www.w3.org/1999/xlink">
    <title>icon/waste-management@2x</title>
    <g id="SGB---1.0-Home-Page-" stroke="none" stroke-width="1" fill="none" fill-rule="evenodd">
        <g id="SGB---1.0.2-Menu-Services-Dropdown" transform="translate(-987.000000, -236.000000)">
            <g id="DROP-DOWN-MENU" transform="translate(130.000000, 85.000000)">
                <g id="CONTENTS" transform="translate(99.000000, 15.000000)">
                    <g id="COMMERCIAL-MAINT." transform="translate(470.000000, 0.000000)">
                        <g id="Group-44" transform="translate(0.000000, 133.000000)">
                            <g id="icon/waste-management" transform="translate(285.000000, 0.000000)">
                                <rect id="colour" x="0" y="0" width="48" height="48"></rect>
                                <path d="M9.16118918,10.2809482 C9.20902667,10.2647336 9.26080583,10.2931315 9.27495999,10.3415961 L9.27495999,10.3415961 L9.62738077,11.5485533 C9.63992244,11.5915533 9.61887036,11.6377783 9.57748286,11.6550679 C9.36964956,11.7417847 9.21269959,11.9218473 9.1567996,12.1431183 L9.1567996,12.1431183 L8.96204546,12.9219564 C8.9478913,12.9785731 8.99071212,13.0333086 9.04894128,13.0333086 L9.04894128,13.0333086 L10.1666724,13.0333086 C10.5624515,13.0333086 10.8833389,13.3541963 10.8833389,13.7499758 C10.8833389,14.1457552 10.5624515,14.466643 10.1666724,14.466643 L10.1666724,14.466643 L5.15000648,14.466643 C4.53241908,14.466643 4.0973129,15.2478998 4.77886279,15.8760586 C4.79552529,15.8913774 4.81810029,15.8999774 4.84076486,15.8999774 L4.84076486,15.8999774 L10.1666724,15.8999774 C10.5624515,15.8999774 10.8833389,16.2208651 10.8833389,16.6166446 C10.8833389,17.0124241 10.5624515,17.3333118 10.1666724,17.3333118 L10.1666724,17.3333118 L5.95625635,17.3333118 C5.90680636,17.3333118 5.86667304,17.3734452 5.86667304,17.4228952 L5.86667304,17.4228952 L5.86667304,35.1508231 C5.86756887,35.1580794 5.8684647,35.1653356 5.86936053,35.1725919 L5.86936053,35.1725919 L7.00679994,39.7235182 C7.08634993,40.042883 7.3732853,40.2669311 7.70241441,40.2666624 L7.70241441,40.2666624 L10.1666724,40.2666624 C10.9579618,40.2675582 11.5991096,40.9087962 11.6000055,41.6999968 L11.6000055,41.6999968 L11.6000055,43.0437478 C11.6000055,43.0932874 11.6401388,43.1333312 11.6895888,43.1333312 L11.6895888,43.1333312 L13.0333386,43.1333312 C13.4291177,43.1333312 13.7500051,43.4542189 13.7500051,43.8499984 C13.7500051,44.2457778 13.429476,44.5666656 13.0336969,44.5666656 L13.0336969,44.5666656 L11.6892304,44.5666656 C11.6413034,44.5666656 11.6002742,44.603126 11.5974971,44.6507844 C11.5531534,45.4029266 10.9296535,45.9991042 10.1666724,46 L10.1666724,46 L8.73333925,46 C7.94204979,45.9991042 7.30090197,45.3578662 7.30000614,44.5666656 L7.30000614,44.5666656 L7.30000614,41.6999968 C7.30000614,41.6864697 7.30367906,41.6738384 7.30403739,41.6604009 C6.47915419,41.506407 5.81991054,40.8855045 5.61682516,40.0713705 L5.61682516,40.0713705 L4.43593785,35.2604732 C4.43504201,35.2533961 4.43423576,35.246319 4.43333993,35.2391523 L4.43333993,35.2391523 L4.43333993,17.2628992 C4.43333993,17.2257221 4.40995868,17.1932034 4.37528994,17.1798554 C3.54700257,16.8617448 2.99776724,16.0641838 3,15.1725602 C3.00296307,13.9880884 3.96553584,13.0303523 5.15000648,13.0333086 L5.15000648,13.0333086 L7.38743946,13.0333086 C7.4285582,13.0333086 7.46439153,13.0053585 7.47433528,12.9654939 L7.47433528,12.9654939 L7.76682482,11.795266 C7.94572271,11.0849592 8.47202471,10.5161942 9.16118918,10.2809482 Z M39.8021711,10.2764102 L39.838101,10.2805898 C40.5278925,10.516015 41.0545529,11.0854071 41.233182,11.7962514 L41.233182,11.7962514 L41.5258507,12.9654939 C41.5357945,13.0053585 41.5715382,13.0333086 41.6126569,13.0333086 L41.6126569,13.0333086 L43.8500003,13.0333086 C45.0368897,13.0346523 45.9986563,13.9964197 46,15.1833102 C45.9973125,16.0713504 45.4483459,16.863626 44.623194,17.1803929 C44.5885252,17.1936513 44.565144,17.2262596 44.565144,17.2633472 L44.565144,17.2633472 L44.5449877,35.4129441 L44.5449877,35.4129441 L44.5423898,35.4346233 L43.382465,40.0713705 C43.1796484,40.8854149 42.5205839,41.5063175 41.6959694,41.6603113 C41.6963278,41.6737488 41.7000007,41.6864697 41.7000007,41.6999968 L41.7000007,41.6999968 L41.7000007,44.5666656 C41.6991048,45.3578662 41.0578675,45.9991042 40.2666676,46 L40.2666676,46 L38.8333345,46 C38.0703533,45.9991042 37.4468534,45.4029266 37.4025097,44.6507844 C37.3997326,44.603126 37.3584347,44.5666656 37.3105972,44.5666656 L37.3105972,44.5666656 L35.9666683,44.5666656 C35.5708892,44.5666656 35.2500017,44.2457778 35.2500017,43.8499984 C35.2500017,43.4542189 35.5708892,43.1333312 35.9666683,43.1333312 L35.9666683,43.1333312 L37.310418,43.1333312 C37.3599576,43.1333312 37.4000014,43.0932874 37.4000014,43.0437478 L37.4000014,43.0437478 L37.4000014,41.6999968 C37.4008972,40.9087962 38.0421346,40.2675582 38.8333345,40.2666624 L38.8333345,40.2666624 L41.2975924,40.2666624 C41.6264528,40.2666624 41.9130298,40.0427039 41.9925798,39.7235182 L41.9925798,39.7235182 L43.1306463,35.1725919 C43.1315421,35.1653356 43.132438,35.1581689 43.1333338,35.1508231 L43.1333338,35.1508231 L43.1333338,17.4228952 C43.1333338,17.3734452 43.09329,17.3333118 43.0437505,17.3333118 L43.0437505,17.3333118 L38.8333345,17.3333118 C38.4375554,17.3333118 38.1166679,17.0124241 38.1166679,16.6166446 C38.1166679,16.2208651 38.4375554,15.8999774 38.8333345,15.8999774 L38.8333345,15.8999774 L43.8500003,15.8999774 C44.4676773,15.8999774 44.9027835,15.1187205 44.221144,14.4905617 C44.2044815,14.475243 44.1819065,14.466643 44.159242,14.466643 L44.159242,14.466643 L38.8326178,14.466643 C38.4368387,14.466643 38.1159513,14.1457552 38.1159513,13.7499758 C38.1159513,13.3541963 38.4368387,13.0333086 38.8326178,13.0333086 L38.8326178,13.0333086 L39.9503489,13.0333086 C40.0086676,13.0333086 40.0514884,12.9785731 40.0372447,12.9219564 L40.0372447,12.9219564 L39.8425801,12.1430287 C39.7870385,11.921489 39.6300885,11.7411576 39.4218969,11.65462 C39.3804198,11.6373304 39.3593677,11.5911054 39.371999,11.5480158 L39.371999,11.5480158 L39.7243302,10.3412378 C39.7384843,10.2927732 39.7903531,10.2643752 39.838101,10.2805898 Z M31.4972669,3 C32.3124751,2.9972354 33.0583458,3.45805241 33.4205312,4.18833629 L33.4205312,4.18833629 L34.2349331,5.81714168 C34.2500727,5.84751045 34.2811581,5.8666813 34.3150206,5.8666813 L34.3150206,5.8666813 L37.6821888,5.8666813 C37.7012701,5.8666813 37.7288617,5.87716256 37.7430159,5.88979382 C39.8640801,7.78233274 38.5521324,10.1666845 36.6833348,10.1666845 L36.6833348,10.1666845 L36.6829765,10.1666845 L36.6777806,29.5999221 L36.6777806,29.5999221 L36.677064,29.6110304 L35.3227434,40.4444406 C35.2322642,41.1611974 34.6230976,41.6989666 33.9006082,41.699952 L33.9006082,41.699952 L33.8166686,41.699952 L33.8166686,44.5666208 C33.8157728,45.357911 33.1745354,45.999149 32.3833355,45.9999552 L32.3833355,45.9999552 L30.9500024,45.9999552 C30.1870213,45.999149 29.5635214,45.4027923 29.5191776,44.6508292 C29.5164005,44.6030812 29.4751026,44.5666208 29.4272651,44.5666208 L29.4272651,44.5666208 L19.5727417,44.5666208 C19.5249042,44.5666208 19.4836063,44.6030812 19.4808292,44.6508292 C19.4364855,45.4027923 18.8129856,45.999149 18.0500044,45.9999552 L18.0500044,45.9999552 L16.6166713,45.9999552 C15.8253819,45.999149 15.1842341,45.357911 15.1833382,44.5666208 L15.1833382,44.5666208 L15.1833382,41.699952 L15.0993987,41.699952 C14.3769092,41.6989666 13.7678322,41.1611974 13.6772635,40.4444406 L13.6772635,40.4444406 L12.3173887,29.5221637 C12.3168512,29.5184907 12.316672,29.5148178 12.316672,29.5110553 L12.316672,10.2538492 C12.316672,10.205295 12.2777929,10.1667741 12.2293283,10.1648929 C10.4076515,10.0920616 9.16916209,7.75277022 11.2569013,5.88979382 C11.2711451,5.87716256 11.2987368,5.8666813 11.317818,5.8666813 L11.317818,5.8666813 L14.6849862,5.8666813 C14.7188487,5.8666813 14.7499341,5.84751045 14.7650737,5.81714168 L14.7650737,5.81714168 L15.5794757,4.18833629 C15.941661,3.45805241 16.6875317,2.9972354 17.5027399,3 L17.5027399,3 Z M10.077089,41.6999968 L8.8222059,41.6999968 C8.77275591,41.6999968 8.73262258,41.7401301 8.73262258,41.7895802 L8.73262258,41.7895802 L8.73333925,44.4770822 C8.73333925,44.5266218 8.77347257,44.5666656 8.82292257,44.5666656 L8.82292257,44.5666656 L10.077089,44.5666656 C10.126539,44.5666656 10.1666724,44.5266218 10.1666724,44.4770822 L10.1666724,44.4770822 L10.1666724,41.7895802 C10.1666724,41.7400405 10.126539,41.6999968 10.077089,41.6999968 L10.077089,41.6999968 Z M40.1770843,41.6999968 L38.9229178,41.6999968 C38.8733782,41.6999968 38.8333345,41.7400405 38.8333345,41.7895802 L38.8333345,41.7895802 L38.8333345,44.4770822 C38.8333345,44.5266218 38.8733782,44.5666656 38.9229178,44.5666656 L38.9229178,44.5666656 L40.1770843,44.5666656 C40.2266238,44.5666656 40.2666676,44.5266218 40.2666676,44.4770822 L40.2666676,44.4770822 L40.2666676,41.7895802 C40.2666676,41.7400405 40.2266238,41.6999968 40.1770843,41.6999968 L40.1770843,41.6999968 Z M32.2937522,41.699952 L31.0395857,41.699952 C30.9900461,41.699952 30.9500024,41.7400853 30.9500024,41.7895354 L30.9500024,41.7895354 L30.9500024,44.4770374 C30.9500024,44.526577 30.9900461,44.5666208 31.0395857,44.5666208 L31.0395857,44.5666208 L32.2937522,44.5666208 C32.3432918,44.5666208 32.3833355,44.526577 32.3833355,44.4770374 L32.3833355,44.4770374 L32.3833355,41.7895354 C32.3833355,41.7400853 32.3432918,41.699952 32.2937522,41.699952 L32.2937522,41.699952 Z M17.9604211,41.699952 L16.705538,41.699952 C16.656088,41.699952 16.6159547,41.7401749 16.6159547,41.7895354 L16.6159547,41.7895354 L16.6166713,44.4770374 C16.6166713,44.526577 16.6568047,44.5666208 16.7062546,44.5666208 L16.7062546,44.5666208 L17.9604211,44.5666208 C18.0098711,44.5666208 18.0500044,44.526577 18.0500044,44.4770374 L18.0500044,44.4770374 L18.0500044,41.7895354 C18.0500044,41.7400853 18.0098711,41.699952 17.9604211,41.699952 L17.9604211,41.699952 Z M35.1604184,10.1666845 L13.8395884,10.1666845 C13.7901384,10.1666845 13.7500051,10.2067283 13.7500051,10.2562679 L13.7500051,10.2562679 L13.7507218,29.477372 L15.0895445,40.1882321 C15.0951882,40.2330238 15.1332611,40.2667072 15.1784111,40.2667072 L15.1784111,40.2667072 L18.0500044,40.2667072 C18.8412939,40.2675134 19.4824417,40.9087514 19.4833375,41.699952 L19.4833375,41.699952 L19.4833375,43.043703 C19.4833375,43.0932426 19.5234709,43.1332864 19.5729209,43.1332864 L19.5729209,43.1332864 L29.427086,43.1332864 C29.4766255,43.1332864 29.5166693,43.0932426 29.5166693,43.043703 L29.5166693,43.043703 L29.5166693,41.699952 C29.5175651,40.9087514 30.1588025,40.2675134 30.9500024,40.2667072 L30.9500024,40.2667072 L33.8215957,40.2667072 C33.8667457,40.2667072 33.9048186,40.2330238 33.9104623,40.1882321 L33.9104623,40.1882321 L35.249285,29.477372 C35.249733,29.473699 35.2500051,29.4700261 35.2500051,29.4662636 L35.2500051,29.4662636 L35.2500051,10.2562679 C35.2500051,10.2067283 35.209958,10.1666845 35.1604184,10.1666845 L35.1604184,10.1666845 Z M30.2333358,22.3499822 C30.6291149,22.3499822 30.9500024,22.67087 30.9500024,23.0666494 L30.9500024,23.0666494 L30.9500024,24.4999838 C30.9467774,27.2692755 28.7026257,29.5134293 25.9333365,29.5166543 L25.9333365,29.5166543 L24.2963805,29.5166543 C24.2165618,29.5166543 24.1766076,29.6131356 24.2330451,29.6695731 L24.2330451,29.6695731 L25.6600178,31.0966367 C25.6950449,31.1315742 25.6950449,31.1882805 25.6600178,31.2233076 L25.6600178,31.2233076 L24.7733221,32.1100041 C24.738295,32.1450313 24.6815888,32.1450313 24.6466513,32.1100041 L24.6466513,32.1100041 L21.3999727,28.8633225 C21.3649456,28.8282954 21.3649456,28.7716787 21.3999727,28.7366516 L21.3999727,28.7366516 L24.6466513,25.48997 C24.6815888,25.4549429 24.738295,25.4549429 24.7733221,25.48997 L24.7733221,25.48997 L25.6600178,26.3766665 C25.6950449,26.4116936 25.6950449,26.4683999 25.6600178,26.5033374 L25.6600178,26.5033374 L24.2330451,27.930401 C24.1766076,27.9868385 24.2165618,28.0833199 24.2963805,28.0833199 L24.2963805,28.0833199 L25.9333365,28.0833199 C27.9114258,28.0809907 29.5144297,26.4780749 29.5166693,24.4999838 L29.5166693,24.4999838 L29.5166693,23.0666494 C29.5166693,22.67087 29.8375567,22.3499822 30.2333358,22.3499822 Z M24.9433871,16.8899635 C24.9783246,16.855026 25.0350308,16.855026 25.0700579,16.8899635 L25.0700579,16.8899635 L28.3167366,20.1366451 C28.3517636,20.1716723 28.3517636,20.228289 28.3167366,20.2633161 L28.3167366,20.2633161 L25.0700579,23.5099977 C25.0350308,23.5449352 24.9783246,23.5449352 24.9433871,23.5099977 L24.9433871,23.5099977 L24.0566018,22.6233012 C24.0216643,22.5883637 24.0216643,22.5315678 24.0566018,22.4966303 L24.0566018,22.4966303 L25.4836641,21.0695667 C25.5401016,21.0131291 25.5001474,20.9166478 25.4203287,20.9166478 L25.4203287,20.9166478 L23.7833727,20.9166478 C21.8052834,20.918977 20.2022795,22.5218928 20.2000399,24.4999838 L20.2000399,24.4999838 L20.2000399,25.9333183 C20.2000399,26.3290977 19.8791525,26.6499855 19.4833734,26.6499855 C19.0875047,26.6499855 18.7667068,26.3290977 18.7667068,25.9333183 L18.7667068,25.9333183 L18.7667068,24.4999838 C18.7699318,21.7306922 21.013994,19.4865384 23.7833727,19.4833134 L23.7833727,19.4833134 L25.4203287,19.4833134 C25.5001474,19.4833134 25.5401016,19.3868321 25.4836641,19.3303945 L25.4836641,19.3303945 L24.0566914,17.903331 C24.0216643,17.8683934 24.0216643,17.8115976 24.0566914,17.77666 L24.0566914,17.77666 Z M36.9925764,7.30001571 L12.316672,7.30001571 C11.9209825,7.30037405 11.6003638,7.62099304 11.6000055,8.01668292 C11.6003638,8.41228322 11.9209825,8.73290221 12.316672,8.73335012 L12.316672,8.73335012 L36.6833348,8.73335012 C37.3010118,8.73335012 37.736118,7.95209329 37.0544785,7.32393448 C37.037816,7.30852614 37.015241,7.30001571 36.9925764,7.30001571 L36.9925764,7.30001571 Z M31.4972669,4.43334373 L17.5027399,4.43334373 C17.2310337,4.43254064 16.9825296,4.58617617 16.8615921,4.82939511 L16.8615921,4.82939511 L16.4078526,5.73696454 C16.3780214,5.7965375 16.4213797,5.8666813 16.4879401,5.8666813 L16.4879401,5.8666813 L32.5120667,5.8666813 C32.5786271,5.8666813 32.6219855,5.7965375 32.5921542,5.73696454 L32.5921542,5.73696454 L32.1384147,4.82939511 C32.0174772,4.58617617 31.7689731,4.43254064 31.4972669,4.43334373 L31.4972669,4.43334373 Z" fill="#212121"></path>
                            </g>
                        </g>
                    </g>
                </g>
            </g>
        </g>
    </g>
</svg>